<svg width="165" height="57" viewBox="0 0 165 57" fill="none" xmlns="http://www.w3.org/2000/svg">
<path d="M58.2737 37.2771C57.073 37.2771 56.0194 36.9913 55.1131 36.4198C54.2126 35.8483 53.5083 35.0488 53.0003 34.0212C52.498 32.9937 52.2469 31.7929 52.2469 30.419C52.2469 29.0336 52.498 27.8242 53.0003 26.7908C53.5083 25.7575 54.2126 24.9551 55.1131 24.3836C56.0194 23.8121 57.073 23.5263 58.2737 23.5263C59.4744 23.5263 60.5251 23.8121 61.4256 24.3836C62.332 24.9551 63.0363 25.7575 63.5385 26.7908C64.0465 27.8242 64.3005 29.0336 64.3005 30.419C64.3005 31.7929 64.0465 32.9937 63.5385 34.0212C63.0363 35.0488 62.332 35.8483 61.4256 36.4198C60.5251 36.9913 59.4744 37.2771 58.2737 37.2771ZM58.2737 35.4413C59.1858 35.4413 59.9363 35.2076 60.5251 34.74C61.1139 34.2724 61.5498 33.6576 61.8326 32.8956C62.1155 32.1335 62.2569 31.308 62.2569 30.419C62.2569 29.53 62.1155 28.7016 61.8326 27.9338C61.5498 27.1661 61.1139 26.5455 60.5251 26.0721C59.9363 25.5988 59.1858 25.3621 58.2737 25.3621C57.3616 25.3621 56.6111 25.5988 56.0223 26.0721C55.4335 26.5455 54.9977 27.1661 54.7148 27.9338C54.4319 28.7016 54.2905 29.53 54.2905 30.419C54.2905 31.308 54.4319 32.1335 54.7148 32.8956C54.9977 33.6576 55.4335 34.2724 56.0223 34.74C56.6111 35.2076 57.3616 35.4413 58.2737 35.4413ZM83.1797 29.4146V31.3196H75.8367V29.4146H83.1797ZM76.3216 23.6995V37H74.278V23.6995H76.3216ZM84.7383 23.6995V37H82.6947V23.6995H84.7383ZM92.3844 37.3117C91.5415 37.3117 90.7766 37.153 90.0897 36.8355C89.4027 36.5122 88.8572 36.0475 88.4531 35.4413C88.049 34.8294 87.847 34.0905 87.847 33.2246C87.847 32.4626 87.997 31.8449 88.2972 31.3715C88.5974 30.8924 88.9986 30.5172 89.5009 30.2458C90.0031 29.9745 90.5573 29.7725 91.1634 29.6397C91.7753 29.5012 92.3901 29.3915 93.0078 29.3107C93.816 29.2067 94.4712 29.1288 94.9735 29.0769C95.4815 29.0191 95.8509 28.9239 96.0818 28.7911C96.3185 28.6583 96.4369 28.4274 96.4369 28.0984V28.0291C96.4369 27.1747 96.2031 26.5109 95.7355 26.0375C95.2736 25.5641 94.5722 25.3274 93.6313 25.3274C92.6557 25.3274 91.8908 25.541 91.3366 25.9682C90.7824 26.3954 90.3927 26.8514 90.1676 27.3364L88.228 26.6436C88.5743 25.8354 89.0361 25.2062 89.6134 24.7559C90.1965 24.2999 90.8315 23.9824 91.5184 23.8034C92.2112 23.6187 92.8924 23.5263 93.562 23.5263C93.9892 23.5263 94.4799 23.5783 95.0341 23.6822C95.594 23.7803 96.1338 23.9853 96.6533 24.297C97.1787 24.6087 97.6145 25.0792 97.9609 25.7084C98.3072 26.3377 98.4804 27.1805 98.4804 28.2369V37H96.4369V35.1989H96.3329C96.1944 35.4875 95.9635 35.7964 95.6402 36.1254C95.3169 36.4545 94.8869 36.7345 94.35 36.9654C93.8131 37.1963 93.1579 37.3117 92.3844 37.3117ZM92.6961 35.476C93.5043 35.476 94.1855 35.3172 94.7397 34.9997C95.2996 34.6822 95.721 34.2724 96.0039 33.7701C96.2925 33.2679 96.4369 32.7397 96.4369 32.1855V30.3151C96.3503 30.419 96.1598 30.5143 95.8653 30.6009C95.5767 30.6817 95.2419 30.7538 94.8609 30.8173C94.4857 30.8751 94.1191 30.927 93.7612 30.9732C93.409 31.0136 93.1233 31.0483 92.9039 31.0771C92.3728 31.1464 91.8764 31.259 91.4145 31.4148C90.9585 31.5649 90.589 31.7929 90.3062 32.0989C90.0291 32.3991 89.8905 32.809 89.8905 33.3285C89.8905 34.0386 90.1532 34.5754 90.6785 34.9391C91.2096 35.297 91.8821 35.476 92.6961 35.476ZM107.614 37.2771C106.367 37.2771 105.293 36.9827 104.392 36.3939C103.492 35.805 102.799 34.994 102.314 33.9606C101.829 32.9273 101.587 31.7468 101.587 30.419C101.587 29.0682 101.835 27.8761 102.332 26.8428C102.834 25.8037 103.532 24.9926 104.427 24.4096C105.328 23.8207 106.378 23.5263 107.579 23.5263C108.514 23.5263 109.357 23.6995 110.108 24.0459C110.858 24.3922 111.473 24.8772 111.952 25.5006C112.431 26.1241 112.728 26.8514 112.844 27.6827H110.8C110.644 27.0766 110.298 26.5397 109.761 26.0721C109.23 25.5988 108.514 25.3621 107.614 25.3621C106.817 25.3621 106.119 25.5699 105.518 25.9855C104.924 26.3954 104.459 26.9756 104.124 27.726C103.795 28.4707 103.63 29.3453 103.63 30.3498C103.63 31.3773 103.792 32.2721 104.115 33.0341C104.444 33.7961 104.906 34.3878 105.501 34.8092C106.101 35.2306 106.805 35.4413 107.614 35.4413C108.145 35.4413 108.627 35.349 109.06 35.1643C109.493 34.9795 109.859 34.714 110.159 34.3676C110.46 34.0212 110.673 33.6056 110.8 33.1207H112.844C112.728 33.9058 112.443 34.613 111.987 35.2422C111.536 35.8656 110.939 36.3621 110.194 36.7316C109.455 37.0953 108.595 37.2771 107.614 37.2771Z" fill="#7FE941"/>
<rect x="1.06319" y="1.06319" width="162.874" height="54.7702" rx="15.5226" stroke="#7FE941" stroke-width="2.12639"/>
</svg>
