<svg width="165" height="57" viewBox="0 0 165 57" fill="none" xmlns="http://www.w3.org/2000/svg">
<path d="M28.8704 37V23.6995H30.9139V29.4838H32.2648L37.0446 23.6995H39.677L34.3083 30.1073L39.7463 37H37.1139L32.7497 31.3889H30.9139V37H28.8704ZM46.823 37.2771C45.6223 37.2771 44.5687 36.9913 43.6624 36.4198C42.7619 35.8483 42.0576 35.0488 41.5496 34.0212C41.0473 32.9937 40.7962 31.7929 40.7962 30.419C40.7962 29.0336 41.0473 27.8242 41.5496 26.7908C42.0576 25.7575 42.7619 24.9551 43.6624 24.3836C44.5687 23.8121 45.6223 23.5263 46.823 23.5263C48.0238 23.5263 49.0744 23.8121 49.975 24.3836C50.8813 24.9551 51.5856 25.7575 52.0878 26.7908C52.5958 27.8242 52.8498 29.0336 52.8498 30.419C52.8498 31.7929 52.5958 32.9937 52.0878 34.0212C51.5856 35.0488 50.8813 35.8483 49.975 36.4198C49.0744 36.9913 48.0238 37.2771 46.823 37.2771ZM46.823 35.4413C47.7351 35.4413 48.4856 35.2076 49.0744 34.74C49.6632 34.2724 50.0991 33.6576 50.3819 32.8956C50.6648 32.1335 50.8062 31.308 50.8062 30.419C50.8062 29.53 50.6648 28.7016 50.3819 27.9338C50.0991 27.1661 49.6632 26.5455 49.0744 26.0721C48.4856 25.5988 47.7351 25.3621 46.823 25.3621C45.9109 25.3621 45.1605 25.5988 44.5716 26.0721C43.9828 26.5455 43.547 27.1661 43.2641 27.9338C42.9812 28.7016 42.8398 29.53 42.8398 30.419C42.8398 31.308 42.9812 32.1335 43.2641 32.8956C43.547 33.6576 43.9828 34.2724 44.5716 34.74C45.1605 35.2076 45.9109 35.4413 46.823 35.4413ZM64.8709 29.4146V31.3196H57.5279V29.4146H64.8709ZM58.0128 23.6995V37H55.9693V23.6995H58.0128ZM66.4296 23.6995V37H64.386V23.6995H66.4296ZM68.3519 25.6045V23.6995H79.1585V25.6045H74.7943V37H72.7508V25.6045H68.3519ZM85.3628 37.3117C84.52 37.3117 83.7551 37.153 83.0682 36.8355C82.3812 36.5122 81.8357 36.0475 81.4316 35.4413C81.0275 34.8294 80.8254 34.0905 80.8254 33.2246C80.8254 32.4626 80.9755 31.8449 81.2757 31.3715C81.5759 30.8924 81.9771 30.5172 82.4793 30.2458C82.9816 29.9745 83.5357 29.7725 84.1419 29.6397C84.7538 29.5012 85.3686 29.3915 85.9863 29.3107C86.7945 29.2067 87.4497 29.1288 87.9519 29.0769C88.4599 29.0191 88.8294 28.9239 89.0603 28.7911C89.297 28.6583 89.4153 28.4274 89.4153 28.0984V28.0291C89.4153 27.1747 89.1815 26.5109 88.7139 26.0375C88.2521 25.5641 87.5507 25.3274 86.6098 25.3274C85.6342 25.3274 84.8693 25.541 84.3151 25.9682C83.7609 26.3954 83.3712 26.8514 83.1461 27.3364L81.2064 26.6436C81.5528 25.8354 82.0146 25.2062 82.5919 24.7559C83.175 24.2999 83.81 23.9824 84.4969 23.8034C85.1897 23.6187 85.8708 23.5263 86.5405 23.5263C86.9677 23.5263 87.4584 23.5783 88.0125 23.6822C88.5725 23.7803 89.1123 23.9853 89.6318 24.297C90.1571 24.6087 90.593 25.0792 90.9393 25.7084C91.2857 26.3377 91.4589 27.1805 91.4589 28.2369V37H89.4153V35.1989H89.3114C89.1729 35.4875 88.942 35.7964 88.6187 36.1254C88.2954 36.4545 87.8653 36.7345 87.3285 36.9654C86.7916 37.1963 86.1364 37.3117 85.3628 37.3117ZM85.6746 35.476C86.4828 35.476 87.1639 35.3172 87.7181 34.9997C88.2781 34.6822 88.6995 34.2724 88.9824 33.7701C89.271 33.2679 89.4153 32.7397 89.4153 32.1855V30.3151C89.3287 30.419 89.1382 30.5143 88.8438 30.6009C88.5552 30.6817 88.2204 30.7538 87.8394 30.8173C87.4641 30.8751 87.0976 30.927 86.7396 30.9732C86.3875 31.0136 86.1018 31.0483 85.8824 31.0771C85.3513 31.1464 84.8548 31.259 84.393 31.4148C83.937 31.5649 83.5675 31.7929 83.2846 32.0989C83.0075 32.3991 82.869 32.809 82.869 33.3285C82.869 34.0386 83.1317 34.5754 83.657 34.9391C84.1881 35.297 84.8606 35.476 85.6746 35.476ZM95.1888 37V23.6995H97.2324V29.4838H98.5832L103.363 23.6995H105.995L100.627 30.1073L106.065 37H103.432L99.0681 31.3889H97.2324V37H95.1888ZM107.524 25.6045V23.6995H118.33V25.6045H113.966V37H111.923V25.6045H107.524ZM123.078 28.514H126.888C128.447 28.514 129.639 28.9094 130.464 29.7003C131.29 30.4912 131.702 31.4928 131.702 32.705C131.702 33.5017 131.518 34.2262 131.148 34.8785C130.779 35.5251 130.236 36.0417 129.52 36.4285C128.804 36.8095 127.927 37 126.888 37H121.311V23.6995H123.355V35.095H126.888C127.696 35.095 128.36 34.8814 128.88 34.4542C129.399 34.027 129.659 33.4786 129.659 32.809C129.659 32.1047 129.399 31.5303 128.88 31.0858C128.36 30.6413 127.696 30.419 126.888 30.419H123.078V28.514ZM133.815 37V23.6995H135.859V37H133.815Z" fill="#7FE941"/>
<rect x="1.06319" y="1.06319" width="162.874" height="54.7702" rx="15.5226" stroke="#7FE941" stroke-width="2.12639"/>
</svg>
