<svg width="235" height="75" viewBox="0 0 235 75" fill="none" xmlns="http://www.w3.org/2000/svg">
<path d="M45.3737 35.1562V45H42.8595V23.1818H45.3737V31.1932H45.5868C45.9703 30.348 46.5456 29.6768 47.3126 29.1797C48.0868 28.6754 49.1166 28.4233 50.4021 28.4233C51.5172 28.4233 52.4937 28.647 53.3318 29.0945C54.1699 29.5348 54.8197 30.2131 55.2814 31.1293C55.7501 32.0384 55.9845 33.196 55.9845 34.6023V45H53.4703V34.7727C53.4703 33.473 53.1329 32.468 52.4582 31.7578C51.7906 31.0405 50.8637 30.6818 49.6777 30.6818C48.8538 30.6818 48.1152 30.8558 47.4618 31.2038C46.8155 31.5518 46.3041 32.0597 45.9277 32.7273C45.5583 33.3949 45.3737 34.2045 45.3737 35.1562ZM72.175 32.3011L69.9165 32.9403C69.7744 32.5639 69.5649 32.1982 69.2879 31.843C69.018 31.4808 68.6487 31.1825 68.18 30.9482C67.7112 30.7138 67.1111 30.5966 66.3796 30.5966C65.3781 30.5966 64.5436 30.8274 63.876 31.2891C63.2155 31.7436 62.8852 32.3224 62.8852 33.0256C62.8852 33.6506 63.1125 34.1442 63.5671 34.5064C64.0216 34.8686 64.7318 35.1705 65.6977 35.4119L68.1267 36.0085C69.5898 36.3636 70.68 36.907 71.3973 37.6385C72.1146 38.3629 72.4733 39.2969 72.4733 40.4403C72.4733 41.3778 72.2034 42.2159 71.6636 42.9545C71.131 43.6932 70.3852 44.2756 69.4264 44.7017C68.4676 45.1278 67.3526 45.3409 66.0813 45.3409C64.4122 45.3409 63.0308 44.9787 61.9371 44.2543C60.8433 43.5298 60.1509 42.4716 59.8597 41.0795L62.246 40.483C62.4733 41.3636 62.903 42.0241 63.5351 42.4645C64.1743 42.9048 65.0088 43.125 66.0386 43.125C67.2105 43.125 68.1409 42.8764 68.8298 42.3793C69.5259 41.875 69.8739 41.2713 69.8739 40.5682C69.8739 40 69.675 39.5241 69.2773 39.1406C68.8795 38.75 68.2688 38.4588 67.4449 38.267L64.7176 37.6278C63.219 37.2727 62.1182 36.7223 61.4151 35.9766C60.719 35.2237 60.371 34.2827 60.371 33.1534C60.371 32.2301 60.6303 31.4134 61.1487 30.7031C61.6743 29.9929 62.3881 29.4354 63.2901 29.0305C64.1992 28.6257 65.229 28.4233 66.3796 28.4233C67.9989 28.4233 69.2702 28.7784 70.1935 29.4886C71.1239 30.1989 71.7844 31.1364 72.175 32.3011ZM83.1187 45.3409C81.542 45.3409 80.1819 44.9929 79.0385 44.2969C77.9021 43.5938 77.025 42.6136 76.4071 41.3565C75.7963 40.0923 75.4909 38.6222 75.4909 36.946C75.4909 35.2699 75.7963 33.7926 76.4071 32.5142C77.025 31.2287 77.8843 30.2273 78.9852 29.5099C80.0932 28.7855 81.3858 28.4233 82.863 28.4233C83.7153 28.4233 84.5569 28.5653 85.3879 28.8494C86.2189 29.1335 86.9753 29.5952 87.6571 30.2344C88.3389 30.8665 88.8822 31.7045 89.287 32.7486C89.6919 33.7926 89.8943 35.0781 89.8943 36.6051V37.6705H77.2807V35.4972H87.3375C87.3375 34.5739 87.1528 33.75 86.7835 33.0256C86.4213 32.3011 85.9028 31.7294 85.2281 31.3104C84.5605 30.8913 83.7721 30.6818 82.863 30.6818C81.8616 30.6818 80.9951 30.9304 80.2636 31.4276C79.5392 31.9176 78.9816 32.5568 78.591 33.3452C78.2004 34.1335 78.0051 34.9787 78.0051 35.8807V37.3295C78.0051 38.5653 78.2182 39.6129 78.6443 40.4723C79.0775 41.3246 79.6777 41.9744 80.4447 42.4219C81.2118 42.8622 82.1031 43.0824 83.1187 43.0824C83.7792 43.0824 84.3758 42.9901 84.9085 42.8054C85.4483 42.6136 85.9135 42.3295 86.3041 41.9531C86.6947 41.5696 86.9966 41.0937 87.2096 40.5256L89.6386 41.2074C89.3829 42.0312 88.9532 42.7557 88.3495 43.3807C87.7458 43.9986 87.0001 44.4815 86.1123 44.8295C85.2245 45.1705 84.2267 45.3409 83.1187 45.3409ZM108.335 45.3409C106.972 45.3409 105.768 44.9964 104.724 44.3075C103.68 43.6115 102.863 42.6314 102.274 41.3672C101.684 40.0959 101.389 38.5938 101.389 36.8608C101.389 35.142 101.684 33.6506 102.274 32.3864C102.863 31.1222 103.683 30.1456 104.734 29.4567C105.786 28.7678 107 28.4233 108.378 28.4233C109.443 28.4233 110.285 28.6009 110.903 28.956C111.528 29.304 112.004 29.7017 112.33 30.1491C112.664 30.5895 112.923 30.9517 113.108 31.2358H113.321V23.1818H115.835V45H113.406V42.4858H113.108C112.923 42.7841 112.661 43.1605 112.32 43.6151C111.979 44.0625 111.492 44.4638 110.86 44.8189C110.228 45.1669 109.386 45.3409 108.335 45.3409ZM108.676 43.0824C109.685 43.0824 110.537 42.8196 111.233 42.294C111.929 41.7614 112.458 41.0263 112.82 40.0888C113.183 39.1442 113.364 38.054 113.364 36.8182C113.364 35.5966 113.186 34.5277 112.831 33.6115C112.476 32.6882 111.95 31.9709 111.254 31.4595C110.558 30.9411 109.699 30.6818 108.676 30.6818C107.611 30.6818 106.723 30.9553 106.013 31.5021C105.31 32.0419 104.781 32.777 104.426 33.7074C104.078 34.6307 103.904 35.6676 103.904 36.8182C103.904 37.983 104.081 39.0412 104.436 39.9929C104.798 40.9375 105.331 41.6903 106.034 42.2514C106.744 42.8054 107.625 43.0824 108.676 43.0824ZM127.65 45.3409C126.073 45.3409 124.713 44.9929 123.57 44.2969C122.433 43.5938 121.556 42.6136 120.938 41.3565C120.328 40.0923 120.022 38.6222 120.022 36.946C120.022 35.2699 120.328 33.7926 120.938 32.5142C121.556 31.2287 122.416 30.2273 123.516 29.5099C124.624 28.7855 125.917 28.4233 127.394 28.4233C128.247 28.4233 129.088 28.5653 129.919 28.8494C130.75 29.1335 131.507 29.5952 132.188 30.2344C132.87 30.8665 133.413 31.7045 133.818 32.7486C134.223 33.7926 134.426 35.0781 134.426 36.6051V37.6705H121.812V35.4972H131.869C131.869 34.5739 131.684 33.75 131.315 33.0256C130.953 32.3011 130.434 31.7294 129.759 31.3104C129.092 30.8913 128.303 30.6818 127.394 30.6818C126.393 30.6818 125.526 30.9304 124.795 31.4276C124.07 31.9176 123.513 32.5568 123.122 33.3452C122.732 34.1335 122.536 34.9787 122.536 35.8807V37.3295C122.536 38.5653 122.749 39.6129 123.176 40.4723C123.609 41.3246 124.209 41.9744 124.976 42.4219C125.743 42.8622 126.634 43.0824 127.65 43.0824C128.31 43.0824 128.907 42.9901 129.44 42.8054C129.98 42.6136 130.445 42.3295 130.835 41.9531C131.226 41.5696 131.528 41.0937 131.741 40.5256L134.17 41.2074C133.914 42.0312 133.484 42.7557 132.881 43.3807C132.277 43.9986 131.531 44.4815 130.644 44.8295C129.756 45.1705 128.758 45.3409 127.65 45.3409ZM149.841 32.3011L147.582 32.9403C147.44 32.5639 147.231 32.1982 146.954 31.843C146.684 31.4808 146.315 31.1825 145.846 30.9482C145.377 30.7138 144.777 30.5966 144.046 30.5966C143.044 30.5966 142.21 30.8274 141.542 31.2891C140.882 31.7436 140.551 32.3224 140.551 33.0256C140.551 33.6506 140.779 34.1442 141.233 34.5064C141.688 34.8686 142.398 35.1705 143.364 35.4119L145.793 36.0085C147.256 36.3636 148.346 36.907 149.063 37.6385C149.781 38.3629 150.139 39.2969 150.139 40.4403C150.139 41.3778 149.869 42.2159 149.33 42.9545C148.797 43.6932 148.051 44.2756 147.092 44.7017C146.134 45.1278 145.019 45.3409 143.747 45.3409C142.078 45.3409 140.697 44.9787 139.603 44.2543C138.509 43.5298 137.817 42.4716 137.526 41.0795L139.912 40.483C140.139 41.3636 140.569 42.0241 141.201 42.4645C141.84 42.9048 142.675 43.125 143.705 43.125C144.877 43.125 145.807 42.8764 146.496 42.3793C147.192 41.875 147.54 41.2713 147.54 40.5682C147.54 40 147.341 39.5241 146.943 39.1406C146.546 38.75 145.935 38.4588 145.111 38.267L142.384 37.6278C140.885 37.2727 139.784 36.7223 139.081 35.9766C138.385 35.2237 138.037 34.2827 138.037 33.1534C138.037 32.2301 138.296 31.4134 138.815 30.7031C139.34 29.9929 140.054 29.4354 140.956 29.0305C141.865 28.6257 142.895 28.4233 144.046 28.4233C145.665 28.4233 146.936 28.7784 147.859 29.4886C148.79 30.1989 149.45 31.1364 149.841 32.3011ZM153.924 45V28.6364H156.438V45H153.924ZM155.202 25.9091C154.712 25.9091 154.29 25.7422 153.935 25.4084C153.587 25.0746 153.413 24.6733 153.413 24.2045C153.413 23.7358 153.587 23.3345 153.935 23.0007C154.29 22.6669 154.712 22.5 155.202 22.5C155.692 22.5 156.111 22.6669 156.459 23.0007C156.815 23.3345 156.992 23.7358 156.992 24.2045C156.992 24.6733 156.815 25.0746 156.459 25.4084C156.111 25.7422 155.692 25.9091 155.202 25.9091ZM167.648 51.4773C166.434 51.4773 165.39 51.321 164.516 51.0085C163.643 50.7031 162.915 50.2983 162.332 49.794C161.757 49.2969 161.299 48.7642 160.958 48.196L162.961 46.7898C163.188 47.0881 163.476 47.429 163.824 47.8125C164.172 48.2031 164.647 48.5405 165.251 48.8246C165.862 49.1158 166.661 49.2614 167.648 49.2614C168.969 49.2614 170.059 48.9418 170.919 48.3026C171.778 47.6634 172.208 46.6619 172.208 45.2983V41.9744H171.995C171.81 42.2727 171.547 42.642 171.206 43.0824C170.873 43.5156 170.39 43.9027 169.758 44.2436C169.133 44.5774 168.287 44.7443 167.222 44.7443C165.901 44.7443 164.715 44.4318 163.664 43.8068C162.62 43.1818 161.792 42.2727 161.182 41.0795C160.578 39.8864 160.276 38.4375 160.276 36.733C160.276 35.0568 160.571 33.5973 161.16 32.3544C161.75 31.1044 162.57 30.1385 163.621 29.4567C164.672 28.7678 165.887 28.4233 167.265 28.4233C168.33 28.4233 169.175 28.6009 169.8 28.956C170.432 29.304 170.915 29.7017 171.249 30.1491C171.59 30.5895 171.853 30.9517 172.037 31.2358H172.293V28.6364H174.722V45.4688C174.722 46.875 174.402 48.0185 173.763 48.8991C173.131 49.7869 172.279 50.4368 171.206 50.8487C170.141 51.2678 168.955 51.4773 167.648 51.4773ZM167.563 42.4858C168.571 42.4858 169.424 42.255 170.12 41.7933C170.816 41.3317 171.345 40.6676 171.707 39.8011C172.069 38.9347 172.25 37.8977 172.25 36.6903C172.25 35.5114 172.073 34.4709 171.718 33.5689C171.363 32.6669 170.837 31.9602 170.141 31.4489C169.445 30.9375 168.586 30.6818 167.563 30.6818C166.498 30.6818 165.61 30.9517 164.9 31.4915C164.196 32.0312 163.667 32.7557 163.312 33.6648C162.964 34.5739 162.79 35.5824 162.79 36.6903C162.79 37.8267 162.968 38.8317 163.323 39.7053C163.685 40.5717 164.218 41.2536 164.921 41.7507C165.631 42.2408 166.512 42.4858 167.563 42.4858ZM181.839 35.1562V45H179.324V28.6364H181.753V31.1932H181.966C182.35 30.3622 182.932 29.6946 183.714 29.1903C184.495 28.679 185.503 28.4233 186.739 28.4233C187.847 28.4233 188.817 28.6506 189.647 29.1051C190.478 29.5526 191.125 30.2344 191.586 31.1506C192.048 32.0597 192.279 33.2102 192.279 34.6023V45H189.765V34.7727C189.765 33.4872 189.431 32.4858 188.763 31.7685C188.096 31.044 187.179 30.6818 186.015 30.6818C185.212 30.6818 184.495 30.8558 183.863 31.2038C183.238 31.5518 182.744 32.0597 182.382 32.7273C182.02 33.3949 181.839 34.2045 181.839 35.1562Z" fill="#0E2800"/>
<rect x="1.30805" y="1.30805" width="232.384" height="72.3839" rx="19.0975" stroke="#0E2800" stroke-width="2.6161"/>
</svg>
