<svg width="251" height="73" viewBox="0 0 251 73" fill="none" xmlns="http://www.w3.org/2000/svg">
<path d="M58.39 61V50.2H59.86L63.71 57.82L67.57 50.2H69.03V61H67.57V53.13L64.37 59.49H63.06L59.86 53.13V61H58.39ZM76.4075 59.91C77.2142 59.91 77.8875 59.73 78.4275 59.37C78.9675 59.01 79.3975 58.4967 79.7175 57.83L81.1075 58.34C80.6742 59.2933 80.0508 60.0267 79.2375 60.54C78.4308 61.0467 77.4875 61.3 76.4075 61.3C75.6275 61.3 74.9175 61.1667 74.2775 60.9C73.6442 60.6267 73.1008 60.2433 72.6475 59.75C72.2008 59.2567 71.8542 58.66 71.6075 57.96C71.3608 57.2533 71.2375 56.4667 71.2375 55.6C71.2375 54.7267 71.3575 53.94 71.5975 53.24C71.8375 52.5333 72.1808 51.9333 72.6275 51.44C73.0742 50.9467 73.6108 50.5667 74.2375 50.3C74.8642 50.0333 75.5675 49.9 76.3475 49.9C77.1608 49.9 77.8808 50.04 78.5075 50.32C79.1342 50.6 79.6608 51.0033 80.0875 51.53C80.5142 52.0567 80.8308 52.6967 81.0375 53.45C81.2508 54.2033 81.3442 55.0567 81.3175 56.01H72.8075C72.8408 56.6233 72.9475 57.1733 73.1275 57.66C73.3075 58.14 73.5508 58.5467 73.8575 58.88C74.1708 59.2133 74.5408 59.47 74.9675 59.65C75.4008 59.8233 75.8808 59.91 76.4075 59.91ZM79.7675 54.78C79.6742 53.64 79.3342 52.77 78.7475 52.17C78.1608 51.5633 77.3608 51.26 76.3475 51.26C75.3408 51.26 74.5342 51.5667 73.9275 52.18C73.3208 52.7933 72.9575 53.66 72.8375 54.78H79.7675ZM82.7367 59.6H83.7867C83.9534 59.4 84.0901 59.13 84.1967 58.79C84.3034 58.45 84.3867 58.0533 84.4467 57.6C84.5134 57.1467 84.5601 56.6433 84.5867 56.09C84.6134 55.5367 84.6267 54.95 84.6267 54.33V50.2H92.4667V59.6H93.8667V63.27H92.3967V61H84.2067V63.27H82.7367V59.6ZM90.9967 59.6V51.6H86.0167V55.15C86.0167 55.6367 86.0001 56.1067 85.9667 56.56C85.9401 57.0067 85.8967 57.4233 85.8367 57.81C85.7834 58.19 85.7167 58.5333 85.6367 58.84C85.5634 59.1467 85.4767 59.4 85.3767 59.6H90.9967ZM104.441 50.2V61H102.971V52.53L97.3209 61H95.8509V50.2H97.3209V58.67L102.971 50.2H104.441ZM115.758 63.27V61H107.238V50.2H108.708V59.6H114.358V50.2H115.828V59.6H117.228V63.27H115.758ZM127.41 50.2V61H125.94V52.53L120.29 61H118.82V50.2H120.29V58.67L125.94 50.2H127.41ZM130.206 61V50.2H131.676V54.9H137.766V50.2H139.236V61H137.766V56.3H131.676V61H130.206ZM146.513 61.3C145.719 61.3 145.009 61.1667 144.383 60.9C143.756 60.6267 143.223 60.2433 142.783 59.75C142.349 59.25 142.016 58.65 141.783 57.95C141.549 57.2433 141.433 56.46 141.433 55.6C141.433 54.7267 141.549 53.94 141.783 53.24C142.016 52.54 142.353 51.9433 142.793 51.45C143.233 50.95 143.766 50.5667 144.393 50.3C145.026 50.0333 145.736 49.9 146.523 49.9C147.069 49.9 147.583 49.97 148.063 50.11C148.549 50.25 148.986 50.45 149.373 50.71C149.766 50.9633 150.106 51.2767 150.393 51.65C150.679 52.0167 150.896 52.43 151.043 52.89L149.603 53.35C149.476 53.03 149.309 52.7433 149.103 52.49C148.896 52.2367 148.659 52.0233 148.393 51.85C148.133 51.6767 147.843 51.5433 147.523 51.45C147.203 51.3567 146.866 51.31 146.513 51.31C145.946 51.31 145.443 51.41 145.003 51.61C144.563 51.81 144.193 52.0967 143.893 52.47C143.599 52.8367 143.376 53.2867 143.223 53.82C143.069 54.3467 142.993 54.94 142.993 55.6C142.993 56.2467 143.066 56.8333 143.213 57.36C143.366 57.8867 143.589 58.34 143.883 58.72C144.176 59.0933 144.543 59.3833 144.983 59.59C145.423 59.79 145.933 59.89 146.513 59.89C147.259 59.89 147.886 59.7233 148.393 59.39C148.899 59.05 149.289 58.5567 149.563 57.91L151.043 58.35C150.636 59.3167 150.046 60.05 149.273 60.55C148.506 61.05 147.586 61.3 146.513 61.3ZM153.097 50.2H154.567V55.4L159.387 50.2H161.347L156.287 55.6L162.007 61H159.867L154.567 55.8V61H153.097V50.2ZM171.589 50.2V61H170.119V52.53L164.469 61H162.999V50.2H164.469V58.67L170.119 50.2H171.589ZM178.876 48.92C178.409 48.92 177.976 48.8067 177.576 48.58C177.183 48.3467 176.869 48.0333 176.636 47.64C176.409 47.24 176.296 46.8067 176.296 46.34H177.516C177.516 46.5867 177.576 46.8133 177.696 47.02C177.823 47.2267 177.989 47.3933 178.196 47.52C178.403 47.64 178.629 47.7 178.876 47.7C179.123 47.7 179.349 47.64 179.556 47.52C179.769 47.3933 179.936 47.2267 180.056 47.02C180.176 46.8133 180.236 46.5867 180.236 46.34H181.456C181.456 46.8067 181.339 47.24 181.106 47.64C180.879 48.0333 180.566 48.3467 180.166 48.58C179.773 48.8067 179.343 48.92 178.876 48.92ZM182.976 50.2V61H181.506V52.53L175.856 61H174.386V50.2H175.856V58.67L181.506 50.2H182.976ZM198.297 63.27V61H189.777V50.2H191.247V59.6H196.897V50.2H198.367V59.6H199.767V63.27H198.297ZM205.939 59.91C206.745 59.91 207.419 59.73 207.959 59.37C208.499 59.01 208.929 58.4967 209.249 57.83L210.639 58.34C210.205 59.2933 209.582 60.0267 208.769 60.54C207.962 61.0467 207.019 61.3 205.939 61.3C205.159 61.3 204.449 61.1667 203.809 60.9C203.175 60.6267 202.632 60.2433 202.179 59.75C201.732 59.2567 201.385 58.66 201.139 57.96C200.892 57.2533 200.769 56.4667 200.769 55.6C200.769 54.7267 200.889 53.94 201.129 53.24C201.369 52.5333 201.712 51.9333 202.159 51.44C202.605 50.9467 203.142 50.5667 203.769 50.3C204.395 50.0333 205.099 49.9 205.879 49.9C206.692 49.9 207.412 50.04 208.039 50.32C208.665 50.6 209.192 51.0033 209.619 51.53C210.045 52.0567 210.362 52.6967 210.569 53.45C210.782 54.2033 210.875 55.0567 210.849 56.01H202.339C202.372 56.6233 202.479 57.1733 202.659 57.66C202.839 58.14 203.082 58.5467 203.389 58.88C203.702 59.2133 204.072 59.47 204.499 59.65C204.932 59.8233 205.412 59.91 205.939 59.91ZM209.299 54.78C209.205 53.64 208.865 52.77 208.279 52.17C207.692 51.5633 206.892 51.26 205.879 51.26C204.872 51.26 204.065 51.5667 203.459 52.18C202.852 52.7933 202.489 53.66 202.369 54.78H209.299ZM213.058 61V50.2H214.528V54.9H220.618V50.2H222.088V61H220.618V56.3H214.528V61H213.058ZM227.784 61V51.6H223.984V50.2H233.054V51.6H229.254V61H227.784ZM234.963 65.8V50.2H236.433V52.01C236.786 51.35 237.273 50.8333 237.893 50.46C238.513 50.0867 239.276 49.9 240.183 49.9C240.949 49.9 241.636 50.04 242.243 50.32C242.856 50.6 243.373 50.9933 243.793 51.5C244.219 52 244.543 52.6 244.763 53.3C244.989 53.9933 245.103 54.7567 245.103 55.59C245.103 56.4367 244.989 57.2133 244.763 57.92C244.536 58.62 244.209 59.22 243.783 59.72C243.356 60.22 242.839 60.61 242.233 60.89C241.626 61.1633 240.943 61.3 240.183 61.3C239.269 61.3 238.506 61.1133 237.893 60.74C237.279 60.3667 236.793 59.85 236.433 59.19V65.8H234.963ZM239.983 59.89C240.583 59.89 241.106 59.7867 241.553 59.58C241.999 59.3667 242.369 59.0733 242.663 58.7C242.956 58.32 243.176 57.8667 243.323 57.34C243.469 56.8133 243.543 56.23 243.543 55.59C243.543 54.9367 243.469 54.3467 243.323 53.82C243.176 53.2933 242.953 52.8467 242.653 52.48C242.359 52.1067 241.989 51.82 241.543 51.62C241.096 51.4133 240.576 51.31 239.983 51.31C239.376 51.31 238.849 51.4167 238.403 51.63C237.963 51.8367 237.596 52.13 237.303 52.51C237.009 52.8833 236.789 53.3333 236.643 53.86C236.503 54.38 236.433 54.9567 236.433 55.59C236.433 56.2367 236.506 56.8267 236.653 57.36C236.806 57.8867 237.029 58.34 237.323 58.72C237.623 59.0933 237.993 59.3833 238.433 59.59C238.879 59.79 239.396 59.89 239.983 59.89Z" fill="white"/>
<path d="M0 1H39L50 71.5H251" stroke="white" stroke-width="2"/>
</svg>
