<svg width="165" height="57" viewBox="0 0 165 57" fill="none" xmlns="http://www.w3.org/2000/svg">
<path d="M44.0971 26.981V28.886H36.7541V26.981H44.0971ZM37.239 21.266V34.5665H35.1955V21.266H37.239ZM45.6557 21.266V34.5665H43.6122V21.266H45.6557ZM54.7912 34.8436C53.5904 34.8436 52.5369 34.5578 51.6306 33.9863C50.73 33.4148 50.0257 32.6153 49.5177 31.5877C49.0155 30.5602 48.7644 29.3594 48.7644 27.9855C48.7644 26.6 49.0155 25.3906 49.5177 24.3573C50.0257 23.324 50.73 22.5216 51.6306 21.9501C52.5369 21.3785 53.5904 21.0928 54.7912 21.0928C55.9919 21.0928 57.0426 21.3785 57.9431 21.9501C58.8494 22.5216 59.5537 23.324 60.0559 24.3573C60.5639 25.3906 60.818 26.6 60.818 27.9855C60.818 29.3594 60.5639 30.5602 60.0559 31.5877C59.5537 32.6153 58.8494 33.4148 57.9431 33.9863C57.0426 34.5578 55.9919 34.8436 54.7912 34.8436ZM54.7912 33.0078C55.7033 33.0078 56.4537 32.774 57.0426 32.3064C57.6314 31.8388 58.0672 31.224 58.3501 30.462C58.633 29.7 58.7744 28.8745 58.7744 27.9855C58.7744 27.0965 58.633 26.2681 58.3501 25.5003C58.0672 24.7325 57.6314 24.112 57.0426 23.6386C56.4537 23.1652 55.7033 22.9285 54.7912 22.9285C53.8791 22.9285 53.1286 23.1652 52.5398 23.6386C51.951 24.112 51.5151 24.7325 51.2322 25.5003C50.9494 26.2681 50.8079 27.0965 50.8079 27.9855C50.8079 28.8745 50.9494 29.7 51.2322 30.462C51.5151 31.224 51.951 31.8388 52.5398 32.3064C53.1286 32.774 53.8791 33.0078 54.7912 33.0078ZM63.9374 34.5665V21.266H69.3754C70.807 21.266 71.9443 21.5893 72.7871 22.2358C73.6299 22.8824 74.0513 23.7367 74.0513 24.7989C74.0513 25.6071 73.8118 26.2335 73.3326 26.678C72.8535 27.1167 72.2387 27.414 71.4882 27.5699C71.9789 27.6391 72.4552 27.8123 72.917 28.0894C73.3846 28.3665 73.7714 28.7475 74.0773 29.2324C74.3833 29.7116 74.5362 30.3004 74.5362 30.9989C74.5362 31.6801 74.3631 32.2891 74.0167 32.826C73.6703 33.3628 73.1739 33.7871 72.5273 34.0989C71.8808 34.4106 71.1072 34.5665 70.2067 34.5665H63.9374ZM65.8771 32.6961H70.2067C70.9109 32.6961 71.4622 32.5287 71.8606 32.1939C72.2589 31.859 72.458 31.403 72.458 30.8257C72.458 30.1387 72.2589 29.599 71.8606 29.2064C71.4622 28.8081 70.9109 28.609 70.2067 28.609H65.8771V32.6961ZM65.8771 26.8425H69.3754C69.9238 26.8425 70.3943 26.7674 70.7868 26.6173C71.1794 26.4615 71.4796 26.2421 71.6874 25.9592C71.901 25.6706 72.0078 25.33 72.0078 24.9375C72.0078 24.3775 71.774 23.9388 71.3064 23.6213C70.8388 23.298 70.1951 23.1364 69.3754 23.1364H65.8771V26.8425ZM83.0331 34.8436C81.8323 34.8436 80.7788 34.5578 79.8725 33.9863C78.9719 33.4148 78.2676 32.6153 77.7596 31.5877C77.2574 30.5602 77.0063 29.3594 77.0063 27.9855C77.0063 26.6 77.2574 25.3906 77.7596 24.3573C78.2676 23.324 78.9719 22.5216 79.8725 21.9501C80.7788 21.3785 81.8323 21.0928 83.0331 21.0928C84.2338 21.0928 85.2844 21.3785 86.185 21.9501C87.0913 22.5216 87.7956 23.324 88.2978 24.3573C88.8058 25.3906 89.0598 26.6 89.0598 27.9855C89.0598 29.3594 88.8058 30.5602 88.2978 31.5877C87.7956 32.6153 87.0913 33.4148 86.185 33.9863C85.2844 34.5578 84.2338 34.8436 83.0331 34.8436ZM83.0331 33.0078C83.9452 33.0078 84.6956 32.774 85.2844 32.3064C85.8733 31.8388 86.3091 31.224 86.592 30.462C86.8749 29.7 87.0163 28.8745 87.0163 27.9855C87.0163 27.0965 86.8749 26.2681 86.592 25.5003C86.3091 24.7325 85.8733 24.112 85.2844 23.6386C84.6956 23.1652 83.9452 22.9285 83.0331 22.9285C82.121 22.9285 81.3705 23.1652 80.7817 23.6386C80.1929 24.112 79.757 24.7325 79.4741 25.5003C79.1913 26.2681 79.0498 27.0965 79.0498 27.9855C79.0498 28.8745 79.1913 29.7 79.4741 30.462C79.757 31.224 80.1929 31.8388 80.7817 32.3064C81.3705 32.774 82.121 33.0078 83.0331 33.0078ZM97.5826 34.8436C96.3357 34.8436 95.262 34.5491 94.3614 33.9603C93.4609 33.3715 92.7681 32.5604 92.2832 31.5271C91.7983 30.4938 91.5559 29.3132 91.5559 27.9855C91.5559 26.6347 91.8041 25.4426 92.3005 24.4093C92.8028 23.3702 93.5013 22.5591 94.3961 21.976C95.2966 21.3872 96.3473 21.0928 97.548 21.0928C98.4832 21.0928 99.326 21.266 100.076 21.6123C100.827 21.9587 101.442 22.4436 101.921 23.0671C102.4 23.6905 102.697 24.4179 102.813 25.2492H100.769C100.613 24.6431 100.267 24.1062 99.7301 23.6386C99.199 23.1652 98.4832 22.9285 97.5826 22.9285C96.786 22.9285 96.0875 23.1364 95.4871 23.552C94.8925 23.9619 94.4278 24.542 94.093 25.2925C93.7639 26.0372 93.5994 26.9118 93.5994 27.9162C93.5994 28.9438 93.7611 29.8386 94.0843 30.6006C94.4134 31.3626 94.8752 31.9543 95.4698 32.3757C96.0702 32.7971 96.7745 33.0078 97.5826 33.0078C98.1137 33.0078 98.5958 32.9155 99.0287 32.7307C99.4617 32.546 99.8283 32.2804 100.128 31.9341C100.429 31.5877 100.642 31.1721 100.769 30.6872H102.813C102.697 31.4723 102.412 32.1794 101.956 32.8087C101.505 33.4321 100.908 33.9286 100.163 34.298C99.4242 34.6617 98.564 34.8436 97.5826 34.8436ZM104.752 23.171V21.266H115.559V23.171H111.195V34.5665H109.151V23.171H104.752ZM120.584 31.5531L126.991 21.266H129.347V34.5665H127.303V24.2794L120.93 34.5665H118.54V21.266H120.584V31.5531Z" fill="#7FE941"/>
<rect x="1.06319" y="1.06319" width="162.874" height="54.7702" rx="15.5226" stroke="#7FE941" stroke-width="2.12639"/>
</svg>
