<svg width="165" height="57" viewBox="0 0 165 57" fill="none" xmlns="http://www.w3.org/2000/svg">
<path d="M32.0391 33.6056H34.2212C34.2674 34.206 34.5387 34.662 35.0352 34.9738C35.5374 35.2855 36.1897 35.4413 36.9921 35.4413C37.8119 35.4413 38.5133 35.2739 39.0963 34.9391C39.6794 34.5985 39.9709 34.0501 39.9709 33.2939C39.9709 32.8494 39.8612 32.4626 39.6419 32.1335C39.4225 31.7987 39.1136 31.5389 38.7153 31.3542C38.317 31.1695 37.8465 31.0771 37.3039 31.0771H35.0179V29.2414H37.3039C38.1178 29.2414 38.7182 29.0567 39.105 28.6872C39.4975 28.3177 39.6938 27.8559 39.6938 27.3017C39.6938 26.7071 39.4831 26.2309 39.0617 25.873C38.6403 25.5093 38.0428 25.3274 37.2692 25.3274C36.4899 25.3274 35.8405 25.5035 35.3209 25.8556C34.8014 26.202 34.5272 26.6494 34.4983 27.1978H32.3508C32.3739 26.482 32.5933 25.8499 33.0089 25.3015C33.4246 24.7473 33.9903 24.3143 34.7061 24.0026C35.422 23.6851 36.2417 23.5263 37.1653 23.5263C38.1005 23.5263 38.9116 23.6908 39.5986 24.0199C40.2913 24.3432 40.8253 24.7848 41.2005 25.3448C41.5815 25.8989 41.772 26.5282 41.772 27.2325C41.772 27.9829 41.5613 28.5891 41.1399 29.0509C40.7185 29.5127 40.1903 29.8417 39.5553 30.038V30.1766C40.0575 30.2112 40.4933 30.3728 40.8628 30.6615C41.238 30.9444 41.5296 31.3167 41.7374 31.7785C41.9452 32.2346 42.0491 32.7397 42.0491 33.2939C42.0491 34.1021 41.8326 34.8063 41.3997 35.4067C40.9667 36.0013 40.3721 36.4631 39.6159 36.7922C38.8596 37.1155 37.9966 37.2771 37.0268 37.2771C36.0858 37.2771 35.243 37.1241 34.4983 36.8182C33.7536 36.5064 33.1619 36.0764 32.7232 35.5279C32.2902 34.9738 32.0622 34.333 32.0391 33.6056ZM48.8336 37.3117C47.9907 37.3117 47.2258 37.153 46.5389 36.8355C45.8519 36.5122 45.3064 36.0475 44.9023 35.4413C44.4982 34.8294 44.2962 34.0905 44.2962 33.2246C44.2962 32.4626 44.4463 31.8449 44.7464 31.3715C45.0466 30.8924 45.4478 30.5172 45.9501 30.2458C46.4523 29.9745 47.0065 29.7725 47.6126 29.6397C48.2245 29.5012 48.8393 29.3915 49.457 29.3107C50.2652 29.2067 50.9204 29.1288 51.4227 29.0769C51.9307 29.0191 52.3001 28.9239 52.531 28.7911C52.7677 28.6583 52.8861 28.4274 52.8861 28.0984V28.0291C52.8861 27.1747 52.6523 26.5109 52.1847 26.0375C51.7228 25.5641 51.0215 25.3274 50.0805 25.3274C49.1049 25.3274 48.34 25.541 47.7858 25.9682C47.2316 26.3954 46.842 26.8514 46.6168 27.3364L44.6772 26.6436C45.0235 25.8354 45.4854 25.2062 46.0626 24.7559C46.6457 24.2999 47.2807 23.9824 47.9677 23.8034C48.6604 23.6187 49.3416 23.5263 50.0112 23.5263C50.4384 23.5263 50.9291 23.5783 51.4833 23.6822C52.0432 23.7803 52.583 23.9853 53.1025 24.297C53.6279 24.6087 54.0637 25.0792 54.4101 25.7084C54.7564 26.3377 54.9296 27.1805 54.9296 28.2369V37H52.8861V35.1989H52.7822C52.6436 35.4875 52.4127 35.7964 52.0894 36.1254C51.7661 36.4545 51.3361 36.7345 50.7992 36.9654C50.2623 37.1963 49.6071 37.3117 48.8336 37.3117ZM49.1453 35.476C49.9535 35.476 50.6347 35.3172 51.1889 34.9997C51.7488 34.6822 52.1702 34.2724 52.4531 33.7701C52.7417 33.2679 52.8861 32.7397 52.8861 32.1855V30.3151C52.7995 30.419 52.609 30.5143 52.3146 30.6009C52.0259 30.6817 51.6911 30.7538 51.3101 30.8173C50.9349 30.8751 50.5683 30.927 50.2104 30.9732C49.8582 31.0136 49.5725 31.0483 49.3531 31.0771C48.822 31.1464 48.3256 31.259 47.8637 31.4148C47.4077 31.5649 47.0382 31.7929 46.7554 32.0989C46.4783 32.3991 46.3397 32.809 46.3397 33.3285C46.3397 34.0386 46.6024 34.5754 47.1277 34.9391C47.6588 35.297 48.3313 35.476 49.1453 35.476ZM58.6596 37V23.6995H60.7031V29.4838H62.054L66.8338 23.6995H69.4662L64.0975 30.1073L69.5355 37H66.9031L62.5389 31.3889H60.7031V37H58.6596ZM75.6705 37.3117C74.8277 37.3117 74.0628 37.153 73.3758 36.8355C72.6889 36.5122 72.1433 36.0475 71.7393 35.4413C71.3352 34.8294 71.1331 34.0905 71.1331 33.2246C71.1331 32.4626 71.2832 31.8449 71.5834 31.3715C71.8836 30.8924 72.2848 30.5172 72.787 30.2458C73.2892 29.9745 73.8434 29.7725 74.4496 29.6397C75.0615 29.5012 75.6763 29.3915 76.294 29.3107C77.1022 29.2067 77.7574 29.1288 78.2596 29.0769C78.7676 29.0191 79.1371 28.9239 79.368 28.7911C79.6047 28.6583 79.723 28.4274 79.723 28.0984V28.0291C79.723 27.1747 79.4892 26.5109 79.0216 26.0375C78.5598 25.5641 77.8584 25.3274 76.9174 25.3274C75.9418 25.3274 75.1769 25.541 74.6228 25.9682C74.0686 26.3954 73.6789 26.8514 73.4538 27.3364L71.5141 26.6436C71.8605 25.8354 72.3223 25.2062 72.8996 24.7559C73.4826 24.2999 74.1176 23.9824 74.8046 23.8034C75.4973 23.6187 76.1785 23.5263 76.8482 23.5263C77.2754 23.5263 77.766 23.5783 78.3202 23.6822C78.8802 23.7803 79.4199 23.9853 79.9395 24.297C80.4648 24.6087 80.9007 25.0792 81.247 25.7084C81.5934 26.3377 81.7666 27.1805 81.7666 28.2369V37H79.723V35.1989H79.6191C79.4806 35.4875 79.2496 35.7964 78.9264 36.1254C78.6031 36.4545 78.173 36.7345 77.6362 36.9654C77.0993 37.1963 76.4441 37.3117 75.6705 37.3117ZM75.9822 35.476C76.7904 35.476 77.4716 35.3172 78.0258 34.9997C78.5858 34.6822 79.0072 34.2724 79.2901 33.7701C79.5787 33.2679 79.723 32.7397 79.723 32.1855V30.3151C79.6364 30.419 79.4459 30.5143 79.1515 30.6009C78.8629 30.6817 78.528 30.7538 78.147 30.8173C77.7718 30.8751 77.4052 30.927 77.0473 30.9732C76.6952 31.0136 76.4094 31.0483 76.1901 31.0771C75.659 31.1464 75.1625 31.259 74.7007 31.4148C74.2446 31.5649 73.8752 31.7929 73.5923 32.0989C73.3152 32.3991 73.1767 32.809 73.1767 33.3285C73.1767 34.0386 73.4393 34.5754 73.9647 34.9391C74.4958 35.297 75.1683 35.476 75.9822 35.476ZM84.6652 33.6056H86.8473C86.8935 34.206 87.1648 34.662 87.6613 34.9738C88.1635 35.2855 88.8159 35.4413 89.6183 35.4413C90.438 35.4413 91.1394 35.2739 91.7225 34.9391C92.3055 34.5985 92.597 34.0501 92.597 33.2939C92.597 32.8494 92.4874 32.4626 92.268 32.1335C92.0486 31.7987 91.7398 31.5389 91.3415 31.3542C90.9431 31.1695 90.4727 31.0771 89.93 31.0771H87.644V29.2414H89.93C90.744 29.2414 91.3443 29.0567 91.7311 28.6872C92.1237 28.3177 92.3199 27.8559 92.3199 27.3017C92.3199 26.7071 92.1092 26.2309 91.6878 25.873C91.2664 25.5093 90.6689 25.3274 89.8954 25.3274C89.116 25.3274 88.4666 25.5035 87.9471 25.8556C87.4275 26.202 87.1533 26.6494 87.1244 27.1978H84.977C85.0001 26.482 85.2194 25.8499 85.6351 25.3015C86.0507 24.7473 86.6164 24.3143 87.3323 24.0026C88.0481 23.6851 88.8678 23.5263 89.7915 23.5263C90.7267 23.5263 91.5377 23.6908 92.2247 24.0199C92.9174 24.3432 93.4514 24.7848 93.8266 25.3448C94.2076 25.8989 94.3981 26.5282 94.3981 27.2325C94.3981 27.9829 94.1874 28.5891 93.766 29.0509C93.3446 29.5127 92.8164 29.8417 92.1814 30.038V30.1766C92.6836 30.2112 93.1195 30.3728 93.4889 30.6615C93.8642 30.9444 94.1557 31.3167 94.3635 31.7785C94.5713 32.2346 94.6752 32.7397 94.6752 33.2939C94.6752 34.1021 94.4588 34.8063 94.0258 35.4067C93.5928 36.0013 92.9982 36.4631 92.242 36.7922C91.4858 37.1155 90.6227 37.2771 89.6529 37.2771C88.712 37.2771 87.8691 37.1241 87.1244 36.8182C86.3798 36.5064 85.788 36.0764 85.3493 35.5279C84.9164 34.9738 84.6883 34.333 84.6652 33.6056ZM101.46 37.3117C100.617 37.3117 99.852 37.153 99.165 36.8355C98.4781 36.5122 97.9325 36.0475 97.5284 35.4413C97.1243 34.8294 96.9223 34.0905 96.9223 33.2246C96.9223 32.4626 97.0724 31.8449 97.3726 31.3715C97.6728 30.8924 98.074 30.5172 98.5762 30.2458C99.0784 29.9745 99.6326 29.7725 100.239 29.6397C100.851 29.5012 101.465 29.3915 102.083 29.3107C102.891 29.2067 103.547 29.1288 104.049 29.0769C104.557 29.0191 104.926 28.9239 105.157 28.7911C105.394 28.6583 105.512 28.4274 105.512 28.0984V28.0291C105.512 27.1747 105.278 26.5109 104.811 26.0375C104.349 25.5641 103.648 25.3274 102.707 25.3274C101.731 25.3274 100.966 25.541 100.412 25.9682C99.8578 26.3954 99.4681 26.8514 99.243 27.3364L97.3033 26.6436C97.6497 25.8354 98.1115 25.2062 98.6888 24.7559C99.2718 24.2999 99.9068 23.9824 100.594 23.8034C101.287 23.6187 101.968 23.5263 102.637 23.5263C103.065 23.5263 103.555 23.5783 104.109 23.6822C104.669 23.7803 105.209 23.9853 105.729 24.297C106.254 24.6087 106.69 25.0792 107.036 25.7084C107.383 26.3377 107.556 27.1805 107.556 28.2369V37H105.512V35.1989H105.408C105.27 35.4875 105.039 35.7964 104.716 36.1254C104.392 36.4545 103.962 36.7345 103.425 36.9654C102.888 37.1963 102.233 37.3117 101.46 37.3117ZM101.771 35.476C102.58 35.476 103.261 35.3172 103.815 34.9997C104.375 34.6822 104.796 34.2724 105.079 33.7701C105.368 33.2679 105.512 32.7397 105.512 32.1855V30.3151C105.426 30.419 105.235 30.5143 104.941 30.6009C104.652 30.6817 104.317 30.7538 103.936 30.8173C103.561 30.8751 103.194 30.927 102.837 30.9732C102.484 31.0136 102.199 31.0483 101.979 31.0771C101.448 31.1464 100.952 31.259 100.49 31.4148C100.034 31.5649 99.6644 31.7929 99.3815 32.0989C99.1044 32.3991 98.9659 32.809 98.9659 33.3285C98.9659 34.0386 99.2285 34.5754 99.7538 34.9391C100.285 35.297 100.957 35.476 101.771 35.476ZM109.476 25.6045V23.6995H120.283V25.6045H115.918V37H113.875V25.6045H109.476ZM125.03 28.514H128.84C130.399 28.514 131.591 28.9094 132.416 29.7003C133.242 30.4912 133.655 31.4928 133.655 32.705C133.655 33.5017 133.47 34.2262 133.1 34.8785C132.731 35.5251 132.188 36.0417 131.472 36.4285C130.757 36.8095 129.879 37 128.84 37H123.264V23.6995H125.307V35.095H128.84C129.648 35.095 130.312 34.8814 130.832 34.4542C131.351 34.027 131.611 33.4786 131.611 32.809C131.611 32.1047 131.351 31.5303 130.832 31.0858C130.312 30.6413 129.648 30.419 128.84 30.419H125.03V28.514Z" fill="#7FE941"/>
<rect x="1.06319" y="1.06319" width="162.874" height="54.7702" rx="15.5226" stroke="#7FE941" stroke-width="2.12639"/>
</svg>
