<svg width="204" height="70" viewBox="0 0 204 70" fill="none" xmlns="http://www.w3.org/2000/svg">
<path d="M39.9313 40.7827H42.6079C42.6646 41.5191 42.9974 42.0785 43.6063 42.4609C44.2224 42.8432 45.0225 43.0344 46.0068 43.0344C47.0123 43.0344 47.8726 42.8291 48.5878 42.4184C49.303 42.0006 49.6606 41.3279 49.6606 40.4003C49.6606 39.8551 49.5261 39.3806 49.257 38.977C48.9879 38.5663 48.6091 38.2477 48.1205 38.0211C47.6319 37.7945 47.0548 37.6812 46.3892 37.6812H43.5851V35.4294H46.3892C47.3876 35.4294 48.124 35.2028 48.5984 34.7497C49.08 34.2965 49.3207 33.73 49.3207 33.0502C49.3207 32.3209 49.0623 31.7367 48.5453 31.2977C48.0284 30.8516 47.2955 30.6285 46.3467 30.6285C45.3908 30.6285 44.5941 30.8445 43.9569 31.2764C43.3196 31.7013 42.9832 32.2501 42.9478 32.9228H40.3137C40.342 32.0447 40.6111 31.2694 41.1209 30.5967C41.6308 29.9169 42.3247 29.3858 43.2027 29.0034C44.0808 28.614 45.0863 28.4193 46.2192 28.4193C47.3664 28.4193 48.3612 28.6211 49.2039 29.0247C50.0536 29.4212 50.7086 29.9629 51.1688 30.6498C51.6362 31.3295 51.8699 32.1014 51.8699 32.9653C51.8699 33.8858 51.6114 34.6293 51.0945 35.1958C50.5776 35.7622 49.9297 36.1659 49.1508 36.4066V36.5766C49.7668 36.619 50.3014 36.8173 50.7546 37.1714C51.2149 37.5183 51.5725 37.9751 51.8274 38.5415C52.0823 39.1009 52.2098 39.7205 52.2098 40.4003C52.2098 41.3916 51.9442 42.2555 51.4131 42.9919C50.8821 43.7213 50.1527 44.2878 49.2251 44.6914C48.2975 45.0879 47.2389 45.2862 46.0493 45.2862C44.8951 45.2862 43.8613 45.0985 42.9478 44.7232C42.0344 44.3409 41.3086 43.8133 40.7704 43.1406C40.2393 42.4609 39.9596 41.6749 39.9313 40.7827ZM60.5317 45.3287C59.4979 45.3287 58.5596 45.1339 57.717 44.7445C56.8744 44.3479 56.2052 43.7779 55.7095 43.0344C55.2139 42.2838 54.966 41.3775 54.966 40.3153C54.966 39.3806 55.1501 38.623 55.5183 38.0423C55.8866 37.4546 56.3787 36.9943 56.9947 36.6615C57.6108 36.3287 58.2905 36.0809 59.0341 35.918C59.7846 35.7481 60.5388 35.6135 61.2964 35.5144C62.2878 35.387 63.0915 35.2914 63.7075 35.2276C64.3306 35.1568 64.7838 35.04 65.0671 34.8771C65.3574 34.7143 65.5025 34.431 65.5025 34.0274V33.9424C65.5025 32.8944 65.2158 32.0801 64.6422 31.4995C64.0757 30.9188 63.2154 30.6285 62.0612 30.6285C60.8645 30.6285 59.9263 30.8905 59.2465 31.4145C58.5667 31.9385 58.0887 32.4979 57.8126 33.0927L55.4334 32.243C55.8582 31.2517 56.4247 30.4798 57.1328 29.9275C57.848 29.3681 58.6269 28.9787 59.4695 28.7591C60.3193 28.5326 61.1548 28.4193 61.9762 28.4193C62.5002 28.4193 63.1021 28.483 63.7819 28.6104C64.4687 28.7308 65.1308 28.9822 65.7681 29.3646C66.4124 29.7469 66.9471 30.324 67.3719 31.0959C67.7968 31.8677 68.0092 32.9015 68.0092 34.1973V44.9463H65.5025V42.737H65.3751C65.2051 43.0911 64.9219 43.4699 64.5254 43.8735C64.1288 44.2771 63.6013 44.6206 62.9428 44.9038C62.2842 45.187 61.4805 45.3287 60.5317 45.3287ZM60.9141 43.0769C61.9054 43.0769 62.741 42.8822 63.4207 42.4927C64.1076 42.1033 64.6245 41.6005 64.9715 40.9845C65.3255 40.3684 65.5025 39.7205 65.5025 39.0407V36.7465C65.3963 36.874 65.1627 36.9908 64.8015 37.097C64.4475 37.1961 64.0368 37.2847 63.5694 37.3625C63.1092 37.4334 62.6595 37.4971 62.2205 37.5537C61.7886 37.6033 61.4381 37.6458 61.169 37.6812C60.5175 37.7662 59.9086 37.9042 59.3421 38.0954C58.7827 38.2795 58.3295 38.5592 57.9825 38.9345C57.6426 39.3027 57.4727 39.8055 57.4727 40.4428C57.4727 41.3137 57.7949 41.9723 58.4393 42.4184C59.0907 42.8574 59.9156 43.0769 60.9141 43.0769ZM72.5844 44.9463V28.6317H75.0911V35.7268H76.748L82.6111 28.6317H85.84L79.2547 36.4916L85.925 44.9463H82.6961L77.3428 38.0636H75.0911V44.9463H72.5844ZM93.4503 45.3287C92.4165 45.3287 91.4783 45.1339 90.6356 44.7445C89.793 44.3479 89.1238 43.7779 88.6282 43.0344C88.1325 42.2838 87.8847 41.3775 87.8847 40.3153C87.8847 39.3806 88.0688 38.623 88.437 38.0423C88.8052 37.4546 89.2973 36.9943 89.9134 36.6615C90.5294 36.3287 91.2092 36.0809 91.9527 35.918C92.7033 35.7481 93.4574 35.6135 94.2151 35.5144C95.2064 35.387 96.0101 35.2914 96.6261 35.2276C97.2493 35.1568 97.7024 35.04 97.9857 34.8771C98.276 34.7143 98.4212 34.431 98.4212 34.0274V33.9424C98.4212 32.8944 98.1344 32.0801 97.5608 31.4995C96.9943 30.9188 96.134 30.6285 94.9798 30.6285C93.7831 30.6285 92.8449 30.8905 92.1651 31.4145C91.4853 31.9385 91.0074 32.4979 90.7312 33.0927L88.352 32.243C88.7769 31.2517 89.3433 30.4798 90.0514 29.9275C90.7666 29.3681 91.5455 28.9787 92.3882 28.7591C93.2379 28.5326 94.0734 28.4193 94.8948 28.4193C95.4188 28.4193 96.0207 28.483 96.7005 28.6104C97.3873 28.7308 98.0494 28.9822 98.6867 29.3646C99.3311 29.7469 99.8657 30.324 100.291 31.0959C100.715 31.8677 100.928 32.9015 100.928 34.1973V44.9463H98.4212V42.737H98.2937C98.1238 43.0911 97.8405 43.4699 97.444 43.8735C97.0475 44.2771 96.5199 44.6206 95.8614 44.9038C95.2029 45.187 94.3992 45.3287 93.4503 45.3287ZM93.8327 43.0769C94.824 43.0769 95.6596 42.8822 96.3394 42.4927C97.0262 42.1033 97.5431 41.6005 97.8901 40.9845C98.2441 40.3684 98.4212 39.7205 98.4212 39.0407V36.7465C98.315 36.874 98.0813 36.9908 97.7202 37.097C97.3661 37.1961 96.9554 37.2847 96.4881 37.3625C96.0278 37.4334 95.5782 37.4971 95.1391 37.5537C94.7072 37.6033 94.3567 37.6458 94.0876 37.6812C93.4362 37.7662 92.8272 37.9042 92.2607 38.0954C91.7013 38.2795 91.2481 38.5592 90.9012 38.9345C90.5613 39.3027 90.3913 39.8055 90.3913 40.4428C90.3913 41.3137 90.7135 41.9723 91.3579 42.4184C92.0093 42.8574 92.8343 43.0769 93.8327 43.0769ZM104.483 40.7827H107.16C107.217 41.5191 107.549 42.0785 108.158 42.4609C108.774 42.8432 109.575 43.0344 110.559 43.0344C111.564 43.0344 112.425 42.8291 113.14 42.4184C113.855 42.0006 114.213 41.3279 114.213 40.4003C114.213 39.8551 114.078 39.3806 113.809 38.977C113.54 38.5663 113.161 38.2477 112.673 38.0211C112.184 37.7945 111.607 37.6812 110.941 37.6812H108.137V35.4294H110.941C111.94 35.4294 112.676 35.2028 113.151 34.7497C113.632 34.2965 113.873 33.73 113.873 33.0502C113.873 32.3209 113.614 31.7367 113.097 31.2977C112.58 30.8516 111.848 30.6285 110.899 30.6285C109.943 30.6285 109.146 30.8445 108.509 31.2764C107.872 31.7013 107.535 32.2501 107.5 32.9228H104.866C104.894 32.0447 105.163 31.2694 105.673 30.5967C106.183 29.9169 106.877 29.3858 107.755 29.0034C108.633 28.614 109.638 28.4193 110.771 28.4193C111.918 28.4193 112.913 28.6211 113.756 29.0247C114.606 29.4212 115.261 29.9629 115.721 30.6498C116.188 31.3295 116.422 32.1014 116.422 32.9653C116.422 33.8858 116.163 34.6293 115.647 35.1958C115.13 35.7622 114.482 36.1659 113.703 36.4066V36.5766C114.319 36.619 114.853 36.8173 115.307 37.1714C115.767 37.5183 116.125 37.9751 116.379 38.5415C116.634 39.1009 116.762 39.7205 116.762 40.4003C116.762 41.3916 116.496 42.2555 115.965 42.9919C115.434 43.7213 114.705 44.2878 113.777 44.6914C112.85 45.0879 111.791 45.2862 110.601 45.2862C109.447 45.2862 108.413 45.0985 107.5 44.7232C106.586 44.3409 105.861 43.8133 105.322 43.1406C104.791 42.4609 104.512 41.6749 104.483 40.7827ZM125.084 45.3287C124.05 45.3287 123.112 45.1339 122.269 44.7445C121.426 44.3479 120.757 43.7779 120.262 43.0344C119.766 42.2838 119.518 41.3775 119.518 40.3153C119.518 39.3806 119.702 38.623 120.07 38.0423C120.439 37.4546 120.931 36.9943 121.547 36.6615C122.163 36.3287 122.843 36.0809 123.586 35.918C124.337 35.7481 125.091 35.6135 125.848 35.5144C126.84 35.387 127.644 35.2914 128.26 35.2276C128.883 35.1568 129.336 35.04 129.619 34.8771C129.909 34.7143 130.055 34.431 130.055 34.0274V33.9424C130.055 32.8944 129.768 32.0801 129.194 31.4995C128.628 30.9188 127.767 30.6285 126.613 30.6285C125.417 30.6285 124.478 30.8905 123.799 31.4145C123.119 31.9385 122.641 32.4979 122.365 33.0927L119.985 32.243C120.41 31.2517 120.977 30.4798 121.685 29.9275C122.4 29.3681 123.179 28.9787 124.022 28.7591C124.871 28.5326 125.707 28.4193 126.528 28.4193C127.052 28.4193 127.654 28.483 128.334 28.6104C129.021 28.7308 129.683 28.9822 130.32 29.3646C130.965 29.7469 131.499 30.324 131.924 31.0959C132.349 31.8677 132.561 32.9015 132.561 34.1973V44.9463H130.055V42.737H129.927C129.757 43.0911 129.474 43.4699 129.077 43.8735C128.681 44.2771 128.153 44.6206 127.495 44.9038C126.836 45.187 126.033 45.3287 125.084 45.3287ZM125.466 43.0769C126.457 43.0769 127.293 42.8822 127.973 42.4927C128.66 42.1033 129.177 41.6005 129.524 40.9845C129.878 40.3684 130.055 39.7205 130.055 39.0407V36.7465C129.948 36.874 129.715 36.9908 129.354 37.097C129 37.1961 128.589 37.2847 128.121 37.3625C127.661 37.4334 127.212 37.4971 126.773 37.5537C126.341 37.6033 125.99 37.6458 125.721 37.6812C125.07 37.7662 124.461 37.9042 123.894 38.0954C123.335 38.2795 122.882 38.5592 122.535 38.9345C122.195 39.3027 122.025 39.8055 122.025 40.4428C122.025 41.3137 122.347 41.9723 122.991 42.4184C123.643 42.8574 124.468 43.0769 125.466 43.0769ZM134.917 30.9684V28.6317H148.172V30.9684H142.819V44.9463H140.312V30.9684H134.917ZM153.995 34.5372H158.669C160.581 34.5372 162.043 35.0223 163.056 35.9924C164.068 36.9625 164.574 38.191 164.574 39.678C164.574 40.6552 164.348 41.5439 163.895 42.344C163.441 43.1371 162.776 43.7708 161.898 44.2453C161.02 44.7126 159.943 44.9463 158.669 44.9463H151.829V28.6317H154.335V42.6096H158.669C159.66 42.6096 160.475 42.3476 161.112 41.8236C161.749 41.2996 162.068 40.6269 162.068 39.8055C162.068 38.9416 161.749 38.2371 161.112 37.6918C160.475 37.1466 159.66 36.874 158.669 36.874H153.995V34.5372Z" fill="#00FFD5"/>
<rect x="1.93597" y="1.30413" width="199.783" height="67.182" rx="19.0403" stroke="#00FFD5" stroke-width="2.60826"/>
</svg>
