<svg width="203" height="70" viewBox="0 0 203 70" fill="none" xmlns="http://www.w3.org/2000/svg">
<rect x="1.75237" y="1.30413" width="199.783" height="67.182" rx="19.0403" fill="#00FFD5" stroke="#00FFD5" stroke-width="2.60826"/>
<path d="M53.3696 41.5474L59.0627 28.6317H61.4419L54.3893 44.9463H52.3499L45.4247 28.6317H47.7615L53.3696 41.5474ZM46.9542 28.6317V44.9463H44.4476V28.6317H46.9542ZM59.785 44.9463V28.6317H62.2917V44.9463H59.785ZM71.681 45.3287C70.6472 45.3287 69.709 45.1339 68.8664 44.7445C68.0237 44.3479 67.3546 43.7779 66.8589 43.0344C66.3632 42.2838 66.1154 41.3775 66.1154 40.3153C66.1154 39.3806 66.2995 38.623 66.6677 38.0423C67.0359 37.4546 67.528 36.9943 68.1441 36.6615C68.7601 36.3287 69.4399 36.0809 70.1834 35.918C70.934 35.7481 71.6881 35.6135 72.4458 35.5144C73.4371 35.387 74.2408 35.2914 74.8569 35.2276C75.48 35.1568 75.9332 35.04 76.2164 34.8771C76.5067 34.7143 76.6519 34.431 76.6519 34.0274V33.9424C76.6519 32.8944 76.3651 32.0801 75.7916 31.4995C75.2251 30.9188 74.3647 30.6285 73.2105 30.6285C72.0139 30.6285 71.0756 30.8905 70.3958 31.4145C69.7161 31.9385 69.2381 32.4979 68.9619 33.0927L66.5827 32.243C67.0076 31.2517 67.5741 30.4798 68.2822 29.9275C68.9973 29.3681 69.7763 28.9787 70.6189 28.7591C71.4686 28.5326 72.3042 28.4193 73.1256 28.4193C73.6496 28.4193 74.2514 28.483 74.9312 28.6104C75.6181 28.7308 76.2801 28.9822 76.9174 29.3646C77.5618 29.7469 78.0964 30.324 78.5213 31.0959C78.9461 31.8677 79.1586 32.9015 79.1586 34.1973V44.9463H76.6519V42.737H76.5244C76.3545 43.0911 76.0713 43.4699 75.6747 43.8735C75.2782 44.2771 74.7507 44.6206 74.0921 44.9038C73.4336 45.187 72.6299 45.3287 71.681 45.3287ZM72.0634 43.0769C73.0548 43.0769 73.8903 42.8822 74.5701 42.4927C75.2569 42.1033 75.7739 41.6005 76.1208 40.9845C76.4749 40.3684 76.6519 39.7205 76.6519 39.0407V36.7465C76.5457 36.874 76.312 36.9908 75.9509 37.097C75.5968 37.1961 75.1861 37.2847 74.7188 37.3625C74.2585 37.4334 73.8089 37.4971 73.3699 37.5537C72.9379 37.6033 72.5874 37.6458 72.3183 37.6812C71.6669 37.7662 71.0579 37.9042 70.4914 38.0954C69.932 38.2795 69.4789 38.5592 69.1319 38.9345C68.792 39.3027 68.6221 39.8055 68.6221 40.4428C68.6221 41.3137 68.9442 41.9723 69.5886 42.4184C70.2401 42.8574 71.065 43.0769 72.0634 43.0769ZM93.8029 28.6317V30.9684H86.2404V44.9463H83.7338V28.6317H93.8029ZM101.416 45.3287C100.382 45.3287 99.4438 45.1339 98.6012 44.7445C97.7586 44.3479 97.0894 43.7779 96.5937 43.0344C96.0981 42.2838 95.8502 41.3775 95.8502 40.3153C95.8502 39.3806 96.0343 38.623 96.4025 38.0423C96.7708 37.4546 97.2629 36.9943 97.8789 36.6615C98.495 36.3287 99.1748 36.0809 99.9183 35.918C100.669 35.7481 101.423 35.6135 102.181 35.5144C103.172 35.387 103.976 35.2914 104.592 35.2276C105.215 35.1568 105.668 35.04 105.951 34.8771C106.242 34.7143 106.387 34.431 106.387 34.0274V33.9424C106.387 32.8944 106.1 32.0801 105.526 31.4995C104.96 30.9188 104.1 30.6285 102.945 30.6285C101.749 30.6285 100.81 30.8905 100.131 31.4145C99.4509 31.9385 98.9729 32.4979 98.6968 33.0927L96.3176 32.243C96.7424 31.2517 97.3089 30.4798 98.017 29.9275C98.7322 29.3681 99.5111 28.9787 100.354 28.7591C101.203 28.5326 102.039 28.4193 102.86 28.4193C103.384 28.4193 103.986 28.483 104.666 28.6104C105.353 28.7308 106.015 28.9822 106.652 29.3646C107.297 29.7469 107.831 30.324 108.256 31.0959C108.681 31.8677 108.893 32.9015 108.893 34.1973V44.9463H106.387V42.737H106.259C106.089 43.0911 105.806 43.4699 105.41 43.8735C105.013 44.2771 104.485 44.6206 103.827 44.9038C103.168 45.187 102.365 45.3287 101.416 45.3287ZM101.798 43.0769C102.79 43.0769 103.625 42.8822 104.305 42.4927C104.992 42.1033 105.509 41.6005 105.856 40.9845C106.21 40.3684 106.387 39.7205 106.387 39.0407V36.7465C106.281 36.874 106.047 36.9908 105.686 37.097C105.332 37.1961 104.921 37.2847 104.454 37.3625C103.993 37.4334 103.544 37.4971 103.105 37.5537C102.673 37.6033 102.322 37.6458 102.053 37.6812C101.402 37.7662 100.793 37.9042 100.226 38.0954C99.6669 38.2795 99.2137 38.5592 98.8667 38.9345C98.5268 39.3027 98.3569 39.8055 98.3569 40.4428C98.3569 41.3137 98.6791 41.9723 99.3235 42.4184C99.9749 42.8574 100.8 43.0769 101.798 43.0769ZM112.449 40.7827H115.126C115.182 41.5191 115.515 42.0785 116.124 42.4609C116.74 42.8432 117.54 43.0344 118.524 43.0344C119.53 43.0344 120.39 42.8291 121.105 42.4184C121.821 42.0006 122.178 41.3279 122.178 40.4003C122.178 39.8551 122.044 39.3806 121.775 38.977C121.506 38.5663 121.127 38.2477 120.638 38.0211C120.15 37.7945 119.572 37.6812 118.907 37.6812H116.103V35.4294H118.907C119.905 35.4294 120.642 35.2028 121.116 34.7497C121.598 34.2965 121.838 33.73 121.838 33.0502C121.838 32.3209 121.58 31.7367 121.063 31.2977C120.546 30.8516 119.813 30.6285 118.864 30.6285C117.908 30.6285 117.112 30.8445 116.474 31.2764C115.837 31.7013 115.501 32.2501 115.465 32.9228H112.831C112.86 32.0447 113.129 31.2694 113.639 30.5967C114.148 29.9169 114.842 29.3858 115.72 29.0034C116.598 28.614 117.604 28.4193 118.737 28.4193C119.884 28.4193 120.879 28.6211 121.722 29.0247C122.571 29.4212 123.226 29.9629 123.686 30.6498C124.154 31.3295 124.388 32.1014 124.388 32.9653C124.388 33.8858 124.129 34.6293 123.612 35.1958C123.095 35.7622 122.447 36.1659 121.668 36.4066V36.5766C122.284 36.619 122.819 36.8173 123.272 37.1714C123.733 37.5183 124.09 37.9751 124.345 38.5415C124.6 39.1009 124.727 39.7205 124.727 40.4003C124.727 41.3916 124.462 42.2555 123.931 42.9919C123.4 43.7213 122.67 44.2878 121.743 44.6914C120.815 45.0879 119.757 45.2862 118.567 45.2862C117.413 45.2862 116.379 45.0985 115.465 44.7232C114.552 44.3409 113.826 43.8133 113.288 43.1406C112.757 42.4609 112.477 41.6749 112.449 40.7827ZM130.755 41.25L138.615 28.6317H141.504V44.9463H138.997V32.328L131.18 44.9463H128.248V28.6317H130.755V41.25ZM157.014 35.6419V37.9786H148.007V35.6419H157.014ZM148.602 28.6317V44.9463H146.095V28.6317H148.602ZM158.926 28.6317V44.9463H156.419V28.6317H158.926Z" fill="#0E2800"/>
</svg>
