<svg width="165" height="57" viewBox="0 0 165 57" fill="none" xmlns="http://www.w3.org/2000/svg">
<rect x="1.06319" y="1.06319" width="162.874" height="54.7702" rx="15.5226" fill="#7FE941" stroke="#7FE941" stroke-width="2.12639"/>
<path d="M43.1441 34.2291L47.7854 23.6995H49.7251L43.9754 37H42.3128L36.667 23.6995H38.572L43.1441 34.2291ZM37.9139 23.6995V37H35.8704V23.6995H37.9139ZM48.3742 37V23.6995H50.4178V37H48.3742ZM58.0725 37.3117C57.2297 37.3117 56.4648 37.153 55.7778 36.8355C55.0909 36.5122 54.5453 36.0475 54.1412 35.4413C53.7371 34.8294 53.5351 34.0905 53.5351 33.2246C53.5351 32.4626 53.6852 31.8449 53.9854 31.3715C54.2856 30.8924 54.6868 30.5172 55.189 30.2458C55.6912 29.9745 56.2454 29.7725 56.8516 29.6397C57.4635 29.5012 58.0783 29.3915 58.696 29.3107C59.5042 29.2067 60.1594 29.1288 60.6616 29.0769C61.1696 29.0191 61.5391 28.9239 61.77 28.7911C62.0067 28.6583 62.125 28.4274 62.125 28.0984V28.0291C62.125 27.1747 61.8912 26.5109 61.4236 26.0375C60.9618 25.5641 60.2604 25.3274 59.3194 25.3274C58.3438 25.3274 57.5789 25.541 57.0247 25.9682C56.4706 26.3954 56.0809 26.8514 55.8558 27.3364L53.9161 26.6436C54.2625 25.8354 54.7243 25.2062 55.3016 24.7559C55.8846 24.2999 56.5196 23.9824 57.2066 23.8034C57.8993 23.6187 58.5805 23.5263 59.2502 23.5263C59.6773 23.5263 60.168 23.5783 60.7222 23.6822C61.2822 23.7803 61.8219 23.9853 62.3415 24.297C62.8668 24.6087 63.3026 25.0792 63.649 25.7084C63.9954 26.3377 64.1686 27.1805 64.1686 28.2369V37H62.125V35.1989H62.0211C61.8825 35.4875 61.6516 35.7964 61.3284 36.1254C61.0051 36.4545 60.575 36.7345 60.0381 36.9654C59.5013 37.1963 58.8461 37.3117 58.0725 37.3117ZM58.3842 35.476C59.1924 35.476 59.8736 35.3172 60.4278 34.9997C60.9878 34.6822 61.4092 34.2724 61.692 33.7701C61.9807 33.2679 62.125 32.7397 62.125 32.1855V30.3151C62.0384 30.419 61.8479 30.5143 61.5535 30.6009C61.2649 30.6817 60.93 30.7538 60.549 30.8173C60.1738 30.8751 59.8072 30.927 59.4493 30.9732C59.0972 31.0136 58.8114 31.0483 58.5921 31.0771C58.061 31.1464 57.5645 31.259 57.1027 31.4148C56.6466 31.5649 56.2772 31.7929 55.9943 32.0989C55.7172 32.3991 55.5787 32.809 55.5787 33.3285C55.5787 34.0386 55.8413 34.5754 56.3666 34.9391C56.8977 35.297 57.5703 35.476 58.3842 35.476ZM76.1074 23.6995V25.6045H69.9421V37H67.8985V23.6995H76.1074ZM82.3139 37.3117C81.471 37.3117 80.7061 37.153 80.0192 36.8355C79.3322 36.5122 78.7867 36.0475 78.3826 35.4413C77.9785 34.8294 77.7765 34.0905 77.7765 33.2246C77.7765 32.4626 77.9266 31.8449 78.2267 31.3715C78.5269 30.8924 78.9281 30.5172 79.4304 30.2458C79.9326 29.9745 80.4868 29.7725 81.0929 29.6397C81.7048 29.5012 82.3196 29.3915 82.9373 29.3107C83.7455 29.2067 84.4007 29.1288 84.903 29.0769C85.411 29.0191 85.7804 28.9239 86.0113 28.7911C86.248 28.6583 86.3664 28.4274 86.3664 28.0984V28.0291C86.3664 27.1747 86.1326 26.5109 85.665 26.0375C85.2031 25.5641 84.5018 25.3274 83.5608 25.3274C82.5852 25.3274 81.8203 25.541 81.2661 25.9682C80.7119 26.3954 80.3223 26.8514 80.0971 27.3364L78.1575 26.6436C78.5038 25.8354 78.9657 25.2062 79.5429 24.7559C80.126 24.2999 80.761 23.9824 81.4479 23.8034C82.1407 23.6187 82.8219 23.5263 83.4915 23.5263C83.9187 23.5263 84.4094 23.5783 84.9636 23.6822C85.5235 23.7803 86.0633 23.9853 86.5828 24.297C87.1082 24.6087 87.544 25.0792 87.8904 25.7084C88.2367 26.3377 88.4099 27.1805 88.4099 28.2369V37H86.3664V35.1989H86.2624C86.1239 35.4875 85.893 35.7964 85.5697 36.1254C85.2464 36.4545 84.8164 36.7345 84.2795 36.9654C83.7426 37.1963 83.0874 37.3117 82.3139 37.3117ZM82.6256 35.476C83.4338 35.476 84.115 35.3172 84.6692 34.9997C85.2291 34.6822 85.6505 34.2724 85.9334 33.7701C86.222 33.2679 86.3664 32.7397 86.3664 32.1855V30.3151C86.2798 30.419 86.0893 30.5143 85.7949 30.6009C85.5062 30.6817 85.1714 30.7538 84.7904 30.8173C84.4152 30.8751 84.0486 30.927 83.6907 30.9732C83.3385 31.0136 83.0528 31.0483 82.8334 31.0771C82.3023 31.1464 81.8059 31.259 81.344 31.4148C80.888 31.5649 80.5185 31.7929 80.2357 32.0989C79.9586 32.3991 79.82 32.809 79.82 33.3285C79.82 34.0386 80.0827 34.5754 80.608 34.9391C81.1391 35.297 81.8116 35.476 82.6256 35.476ZM91.3086 33.6056H93.4907C93.5369 34.206 93.8082 34.662 94.3047 34.9738C94.8069 35.2855 95.4592 35.4413 96.2616 35.4413C97.0814 35.4413 97.7828 35.2739 98.3658 34.9391C98.9489 34.5985 99.2404 34.0501 99.2404 33.2939C99.2404 32.8494 99.1307 32.4626 98.9113 32.1335C98.692 31.7987 98.3831 31.5389 97.9848 31.3542C97.5865 31.1695 97.116 31.0771 96.5734 31.0771H94.2873V29.2414H96.5734C97.3873 29.2414 97.9877 29.0567 98.3745 28.6872C98.767 28.3177 98.9633 27.8559 98.9633 27.3017C98.9633 26.7071 98.7526 26.2309 98.3312 25.873C97.9098 25.5093 97.3123 25.3274 96.5387 25.3274C95.7594 25.3274 95.11 25.5035 94.5904 25.8556C94.0709 26.202 93.7967 26.6494 93.7678 27.1978H91.6203C91.6434 26.482 91.8628 25.8499 92.2784 25.3015C92.6941 24.7473 93.2598 24.3143 93.9756 24.0026C94.6914 23.6851 95.5112 23.5263 96.4348 23.5263C97.37 23.5263 98.1811 23.6908 98.868 24.0199C99.5608 24.3432 100.095 24.7848 100.47 25.3448C100.851 25.8989 101.041 26.5282 101.041 27.2325C101.041 27.9829 100.831 28.5891 100.409 29.0509C99.988 29.5127 99.4598 29.8417 98.8247 30.038V30.1766C99.327 30.2112 99.7628 30.3728 100.132 30.6615C100.508 30.9444 100.799 31.3167 101.007 31.7785C101.215 32.2346 101.319 32.7397 101.319 33.2939C101.319 34.1021 101.102 34.8063 100.669 35.4067C100.236 36.0013 99.6416 36.4631 98.8854 36.7922C98.1291 37.1155 97.2661 37.2771 96.2963 37.2771C95.3553 37.2771 94.5125 37.1241 93.7678 36.8182C93.0231 36.5064 92.4314 36.0764 91.9927 35.5279C91.5597 34.9738 91.3317 34.333 91.3086 33.6056ZM106.233 33.9866L112.64 23.6995H114.996V37H112.952V26.7129L106.579 37H104.189V23.6995H106.233V33.9866ZM127.64 29.4146V31.3196H120.297V29.4146H127.64ZM120.782 23.6995V37H118.739V23.6995H120.782ZM129.199 23.6995V37H127.155V23.6995H129.199Z" fill="#0E2800"/>
</svg>
