<svg width="243" height="51" viewBox="0 0 243 51" fill="none" xmlns="http://www.w3.org/2000/svg">
<path d="M5.66 42.31C4.89333 42.3033 4.21333 42.17 3.62 41.91C3.03333 41.65 2.53667 41.2733 2.13 40.78C1.72333 40.28 1.41 39.67 1.19 38.95C0.97 38.23 0.846667 37.41 0.82 36.49C0.806667 36.0633 0.806667 35.58 0.82 35.04C0.833333 34.5 0.87 33.97 0.93 33.45C1.00333 32.8767 1.09333 32.3567 1.2 31.89C1.31333 31.4167 1.45333 30.9933 1.62 30.62C1.79333 30.24 2 29.9067 2.24 29.62C2.48667 29.3267 2.78 29.0733 3.12 28.86C3.60667 28.5533 4.10667 28.3333 4.62 28.2C5.13333 28.06 5.67 27.9533 6.23 27.88C6.79667 27.8067 7.39333 27.7367 8.02 27.67C8.65333 27.5967 9.33 27.4733 10.05 27.3L10.17 28.7C9.51 28.8667 8.88667 28.9833 8.3 29.05C7.72 29.1167 7.17 29.18 6.65 29.24C6.13667 29.3 5.65667 29.38 5.21 29.48C4.77 29.58 4.36 29.7467 3.98 29.98C3.72 30.14 3.49333 30.3267 3.3 30.54C3.11333 30.7533 2.95333 31.0167 2.82 31.33C2.69333 31.6367 2.58667 32.0033 2.5 32.43C2.42 32.85 2.35333 33.3467 2.3 33.92C2.73333 33.2333 3.25667 32.7333 3.87 32.42C4.49 32.1067 5.20667 31.95 6.02 31.95C6.71333 31.95 7.34333 32.0733 7.91 32.32C8.48333 32.5667 8.97333 32.9167 9.38 33.37C9.79333 33.8167 10.1133 34.36 10.34 35C10.5667 35.6333 10.68 36.3367 10.68 37.11C10.68 37.9033 10.56 38.62 10.32 39.26C10.08 39.9 9.74 40.4467 9.3 40.9C8.86667 41.3533 8.34 41.7033 7.72 41.95C7.10667 42.19 6.42 42.31 5.66 42.31ZM5.7 40.9C6.24 40.9 6.72 40.8133 7.14 40.64C7.56667 40.4667 7.92667 40.2167 8.22 39.89C8.52 39.5633 8.74667 39.17 8.9 38.71C9.05333 38.25 9.13 37.73 9.13 37.15C9.13 36.57 9.05667 36.0467 8.91 35.58C8.76333 35.1067 8.54667 34.7067 8.26 34.38C7.98 34.0533 7.63333 33.8033 7.22 33.63C6.80667 33.45 6.33667 33.36 5.81 33.36C5.26333 33.36 4.77667 33.4467 4.35 33.62C3.93 33.7933 3.57333 34.0433 3.28 34.37C2.99333 34.6967 2.77333 35.0933 2.62 35.56C2.46667 36.0267 2.39 36.5567 2.39 37.15C2.39 37.7167 2.46667 38.2333 2.62 38.7C2.77333 39.16 2.99333 39.5533 3.28 39.88C3.56667 40.2067 3.91333 40.46 4.32 40.64C4.73333 40.8133 5.19333 40.9 5.7 40.9ZM17.3944 42.3C16.5944 42.3 15.8777 42.16 15.2444 41.88C14.611 41.6 14.0744 41.21 13.6344 40.71C13.1944 40.2033 12.8577 39.6 12.6244 38.9C12.3977 38.2 12.2844 37.43 12.2844 36.59C12.2844 35.7433 12.401 34.97 12.6344 34.27C12.8744 33.57 13.2144 32.97 13.6544 32.47C14.0944 31.97 14.631 31.5833 15.2644 31.31C15.8977 31.0367 16.6077 30.9 17.3944 30.9C18.201 30.9 18.921 31.04 19.5544 31.32C20.1877 31.6 20.7244 31.99 21.1644 32.49C21.6044 32.99 21.9377 33.59 22.1644 34.29C22.3977 34.9833 22.5144 35.75 22.5144 36.59C22.5144 37.4367 22.3977 38.2133 22.1644 38.92C21.931 39.62 21.5944 40.22 21.1544 40.72C20.7144 41.22 20.1777 41.61 19.5444 41.89C18.911 42.1633 18.1944 42.3 17.3944 42.3ZM17.3944 40.89C17.9877 40.89 18.5044 40.7867 18.9444 40.58C19.391 40.3733 19.761 40.0833 20.0544 39.71C20.3544 39.3367 20.5777 38.8867 20.7244 38.36C20.8777 37.8267 20.9544 37.2367 20.9544 36.59C20.9544 35.93 20.8777 35.3367 20.7244 34.81C20.5777 34.2833 20.3544 33.8367 20.0544 33.47C19.7544 33.0967 19.381 32.81 18.9344 32.61C18.4944 32.41 17.981 32.31 17.3944 32.31C16.801 32.31 16.281 32.4133 15.8344 32.62C15.3944 32.82 15.0244 33.11 14.7244 33.49C14.431 33.8633 14.211 34.3133 14.0644 34.84C13.9177 35.3667 13.8444 35.95 13.8444 36.59C13.8444 37.25 13.921 37.8467 14.0744 38.38C14.2277 38.9067 14.451 39.3567 14.7444 39.73C15.0444 40.1033 15.4144 40.39 15.8544 40.59C16.301 40.79 16.8144 40.89 17.3944 40.89ZM23.7203 40.85C23.8936 40.9033 24.0436 40.93 24.1703 40.93C24.4503 40.93 24.6836 40.8233 24.8703 40.61C25.0636 40.3967 25.217 40.09 25.3303 39.69C25.4503 39.29 25.5336 38.8033 25.5803 38.23C25.627 37.65 25.6503 36.9967 25.6503 36.27V31.2H33.3903V42H31.9203V32.6H27.0403V36.6C27.0403 38.56 26.8403 40 26.4403 40.92C26.0403 41.84 25.4303 42.3 24.6103 42.3C24.337 42.3 24.0403 42.25 23.7203 42.15V40.85ZM40.6952 42.3C39.8952 42.3 39.1785 42.16 38.5452 41.88C37.9118 41.6 37.3752 41.21 36.9352 40.71C36.4952 40.2033 36.1585 39.6 35.9252 38.9C35.6985 38.2 35.5852 37.43 35.5852 36.59C35.5852 35.7433 35.7018 34.97 35.9352 34.27C36.1752 33.57 36.5152 32.97 36.9552 32.47C37.3952 31.97 37.9318 31.5833 38.5652 31.31C39.1985 31.0367 39.9085 30.9 40.6952 30.9C41.5018 30.9 42.2218 31.04 42.8552 31.32C43.4885 31.6 44.0252 31.99 44.4652 32.49C44.9052 32.99 45.2385 33.59 45.4652 34.29C45.6985 34.9833 45.8152 35.75 45.8152 36.59C45.8152 37.4367 45.6985 38.2133 45.4652 38.92C45.2318 39.62 44.8952 40.22 44.4552 40.72C44.0152 41.22 43.4785 41.61 42.8452 41.89C42.2118 42.1633 41.4952 42.3 40.6952 42.3ZM40.6952 40.89C41.2885 40.89 41.8052 40.7867 42.2452 40.58C42.6918 40.3733 43.0618 40.0833 43.3552 39.71C43.6552 39.3367 43.8785 38.8867 44.0252 38.36C44.1785 37.8267 44.2552 37.2367 44.2552 36.59C44.2552 35.93 44.1785 35.3367 44.0252 34.81C43.8785 34.2833 43.6552 33.8367 43.3552 33.47C43.0552 33.0967 42.6818 32.81 42.2352 32.61C41.7952 32.41 41.2818 32.31 40.6952 32.31C40.1018 32.31 39.5818 32.4133 39.1352 32.62C38.6952 32.82 38.3252 33.11 38.0252 33.49C37.7318 33.8633 37.5118 34.3133 37.3652 34.84C37.2185 35.3667 37.1452 35.95 37.1452 36.59C37.1452 37.25 37.2218 37.8467 37.3752 38.38C37.5285 38.9067 37.7518 39.3567 38.0452 39.73C38.3452 40.1033 38.7152 40.39 39.1552 40.59C39.6018 40.79 40.1152 40.89 40.6952 40.89ZM50.6477 42V32.6H46.8477V31.2H55.9177V32.6H52.1177V42H50.6477ZM57.8158 42V31.2H59.2858V35.9H65.3758V31.2H66.8458V42H65.3758V37.3H59.2858V42H57.8158ZM73.8522 30.9C76.7189 30.9 78.1522 32.3967 78.1522 35.39V42H76.6922V40.18C76.3055 40.8733 75.7822 41.4 75.1222 41.76C74.4622 42.12 73.6789 42.3 72.7722 42.3C72.1922 42.3 71.6722 42.2267 71.2122 42.08C70.7522 41.94 70.3622 41.7367 70.0422 41.47C69.7222 41.1967 69.4755 40.8667 69.3022 40.48C69.1289 40.0933 69.0422 39.6567 69.0422 39.17C69.0422 38.6033 69.1455 38.12 69.3522 37.72C69.5655 37.3133 69.8622 36.9767 70.2422 36.71C70.6289 36.4367 71.0922 36.22 71.6322 36.06C72.1789 35.9 72.7822 35.78 73.4422 35.7L76.6922 35.29C76.6922 34.23 76.4622 33.46 76.0022 32.98C75.5422 32.4933 74.8189 32.25 73.8322 32.25C72.2055 32.25 71.2089 32.9267 70.8422 34.28L69.4522 33.95C69.7055 32.9633 70.2089 32.21 70.9622 31.69C71.7222 31.1633 72.6855 30.9 73.8522 30.9ZM73.5822 36.89C73.0355 36.9567 72.5655 37.05 72.1722 37.17C71.7855 37.29 71.4655 37.44 71.2122 37.62C70.9655 37.7933 70.7855 38.0033 70.6722 38.25C70.5589 38.49 70.5022 38.77 70.5022 39.09C70.5022 40.3567 71.3455 40.99 73.0322 40.99C73.4989 40.99 73.9289 40.9267 74.3222 40.8C74.7155 40.6667 75.0622 40.48 75.3622 40.24C75.6689 39.9933 75.9222 39.6967 76.1222 39.35C76.3222 39.0033 76.4655 38.6167 76.5522 38.19C76.6189 37.9167 76.6589 37.63 76.6722 37.33C76.6855 37.0233 76.6922 36.75 76.6922 36.51L73.5822 36.89ZM80.2655 42L82.3255 37.65C81.6255 37.4033 81.0988 37.01 80.7455 36.47C80.3921 35.9233 80.2155 35.2833 80.2155 34.55C80.2155 34.0633 80.2921 33.6167 80.4455 33.21C80.6055 32.7967 80.8421 32.4433 81.1555 32.15C81.4688 31.85 81.8555 31.6167 82.3155 31.45C82.7821 31.2833 83.3221 31.2 83.9355 31.2H88.7255V42H87.2555V37.89H83.9355H83.7855L81.8155 42H80.2655ZM84.0955 32.48C83.6888 32.48 83.3321 32.5333 83.0255 32.64C82.7255 32.74 82.4755 32.8833 82.2755 33.07C82.0755 33.25 81.9255 33.4667 81.8255 33.72C81.7321 33.9733 81.6855 34.25 81.6855 34.55C81.6855 34.85 81.7321 35.1267 81.8255 35.38C81.9255 35.6333 82.0755 35.85 82.2755 36.03C82.4755 36.21 82.7255 36.3533 83.0255 36.46C83.3321 36.56 83.6888 36.61 84.0955 36.61H87.2555V32.48H84.0955ZM99.2711 42.3C98.6644 42.3 98.1011 42.23 97.5811 42.09C97.0678 41.9567 96.6111 41.7467 96.2111 41.46C95.8178 41.1733 95.4878 40.8067 95.2211 40.36C94.9544 39.9133 94.7644 39.38 94.6511 38.76L96.0711 38.5C96.1978 39.3067 96.5211 39.92 97.0411 40.34C97.5611 40.7533 98.2878 40.96 99.2211 40.96C100.188 40.96 100.921 40.7833 101.421 40.43C101.921 40.07 102.171 39.5767 102.171 38.95C102.171 38.61 102.111 38.3233 101.991 38.09C101.871 37.85 101.704 37.6567 101.491 37.51C101.278 37.3633 101.028 37.2567 100.741 37.19C100.454 37.1233 100.144 37.09 99.8111 37.09H98.1111V35.84H99.8111C100.458 35.84 100.964 35.7067 101.331 35.44C101.704 35.1667 101.891 34.7667 101.891 34.24C101.891 33.6067 101.674 33.1167 101.241 32.77C100.814 32.4167 100.148 32.24 99.2411 32.24C98.7811 32.24 98.3811 32.29 98.0411 32.39C97.7078 32.49 97.4211 32.6333 97.1811 32.82C96.9478 33 96.7544 33.2233 96.6011 33.49C96.4544 33.75 96.3378 34.04 96.2511 34.36L94.8311 34.1C94.9844 33.4933 95.2044 32.9867 95.4911 32.58C95.7844 32.1733 96.1244 31.8467 96.5111 31.6C96.9044 31.3467 97.3378 31.1667 97.8111 31.06C98.2844 30.9533 98.7744 30.9 99.2811 30.9C99.9278 30.9 100.504 30.9767 101.011 31.13C101.518 31.2767 101.944 31.4933 102.291 31.78C102.638 32.06 102.901 32.4033 103.081 32.81C103.268 33.21 103.361 33.66 103.361 34.16C103.361 34.7267 103.231 35.1967 102.971 35.57C102.711 35.9367 102.351 36.2167 101.891 36.41C102.131 36.4833 102.358 36.5967 102.571 36.75C102.784 36.9033 102.971 37.09 103.131 37.31C103.291 37.53 103.414 37.78 103.501 38.06C103.594 38.3333 103.641 38.63 103.641 38.95C103.641 39.4433 103.544 39.8967 103.351 40.31C103.158 40.7167 102.874 41.07 102.501 41.37C102.128 41.6633 101.668 41.89 101.121 42.05C100.581 42.2167 99.9644 42.3 99.2711 42.3ZM110.344 42.3C109.544 42.3 108.827 42.16 108.194 41.88C107.56 41.6 107.024 41.21 106.584 40.71C106.144 40.2033 105.807 39.6 105.574 38.9C105.347 38.2 105.234 37.43 105.234 36.59C105.234 35.7433 105.35 34.97 105.584 34.27C105.824 33.57 106.164 32.97 106.604 32.47C107.044 31.97 107.58 31.5833 108.214 31.31C108.847 31.0367 109.557 30.9 110.344 30.9C111.15 30.9 111.87 31.04 112.504 31.32C113.137 31.6 113.674 31.99 114.114 32.49C114.554 32.99 114.887 33.59 115.114 34.29C115.347 34.9833 115.464 35.75 115.464 36.59C115.464 37.4367 115.347 38.2133 115.114 38.92C114.88 39.62 114.544 40.22 114.104 40.72C113.664 41.22 113.127 41.61 112.494 41.89C111.86 42.1633 111.144 42.3 110.344 42.3ZM110.344 40.89C110.937 40.89 111.454 40.7867 111.894 40.58C112.34 40.3733 112.71 40.0833 113.004 39.71C113.304 39.3367 113.527 38.8867 113.674 38.36C113.827 37.8267 113.904 37.2367 113.904 36.59C113.904 35.93 113.827 35.3367 113.674 34.81C113.527 34.2833 113.304 33.8367 113.004 33.47C112.704 33.0967 112.33 32.81 111.884 32.61C111.444 32.41 110.93 32.31 110.344 32.31C109.75 32.31 109.23 32.4133 108.784 32.62C108.344 32.82 107.974 33.11 107.674 33.49C107.38 33.8633 107.16 34.3133 107.014 34.84C106.867 35.3667 106.794 35.95 106.794 36.59C106.794 37.25 106.87 37.8467 107.024 38.38C107.177 38.9067 107.4 39.3567 107.694 39.73C107.994 40.1033 108.364 40.39 108.804 40.59C109.25 40.79 109.764 40.89 110.344 40.89ZM117.66 42V31.2H119.13V35.9H125.22V31.2H126.69V42H125.22V37.3H119.13V42H117.66ZM133.696 30.9C136.563 30.9 137.996 32.3967 137.996 35.39V42H136.536V40.18C136.149 40.8733 135.626 41.4 134.966 41.76C134.306 42.12 133.523 42.3 132.616 42.3C132.036 42.3 131.516 42.2267 131.056 42.08C130.596 41.94 130.206 41.7367 129.886 41.47C129.566 41.1967 129.319 40.8667 129.146 40.48C128.973 40.0933 128.886 39.6567 128.886 39.17C128.886 38.6033 128.989 38.12 129.196 37.72C129.409 37.3133 129.706 36.9767 130.086 36.71C130.473 36.4367 130.936 36.22 131.476 36.06C132.023 35.9 132.626 35.78 133.286 35.7L136.536 35.29C136.536 34.23 136.306 33.46 135.846 32.98C135.386 32.4933 134.663 32.25 133.676 32.25C132.049 32.25 131.053 32.9267 130.686 34.28L129.296 33.95C129.549 32.9633 130.053 32.21 130.806 31.69C131.566 31.1633 132.529 30.9 133.696 30.9ZM133.426 36.89C132.879 36.9567 132.409 37.05 132.016 37.17C131.629 37.29 131.309 37.44 131.056 37.62C130.809 37.7933 130.629 38.0033 130.516 38.25C130.403 38.49 130.346 38.77 130.346 39.09C130.346 40.3567 131.189 40.99 132.876 40.99C133.343 40.99 133.773 40.9267 134.166 40.8C134.559 40.6667 134.906 40.48 135.206 40.24C135.513 39.9933 135.766 39.6967 135.966 39.35C136.166 39.0033 136.309 38.6167 136.396 38.19C136.463 37.9167 136.503 37.63 136.516 37.33C136.529 37.0233 136.536 36.75 136.536 36.51L133.426 36.89Z" fill="white"/>
<path d="M0.5 49.5H138.5L222 1.5H243" stroke="white" stroke-width="2"/>
</svg>
